<?xml version="1.0" encoding="UTF-8" standalone="no"?>
<svg width="4808px" height="1024px" viewBox="0 0 4808 1024" version="1.1" xmlns="http://www.w3.org/2000/svg" xmlns:xlink="http://www.w3.org/1999/xlink">
    <!-- Generator: Sketch 40.3 (33839) - http://www.bohemiancoding.com/sketch -->
    <title>1024</title>
    <desc>Created with Sketch.</desc>
    <defs></defs>
    <g id="Page-1" stroke="none" stroke-width="1" fill="none" fill-rule="evenodd">
        <g id="1024">
            <g id="g26" transform="translate(651.500000, 517.000000) scale(1, -1) translate(-651.500000, -517.000000) translate(265.000000, 119.000000)">
                <g id="g32" transform="translate(158.643554, 8.097533)" fill="#FACBAF">
                    <path d="M455.194915,227.429752 C455.194915,101.971264 353.491839,0.269256198 228.032034,0.269256198 C102.578898,0.269256198 0.875822034,101.971264 0.875822034,227.429752 C0.875822034,352.88824 102.578898,454.583579 228.032034,454.583579 C353.491839,454.583579 455.194915,352.88824 455.194915,227.429752" id="path34"></path>
                </g>
                <g id="g36" transform="translate(0.685742, 267.890653)" fill="#000000">
                    <path d="M702.966102,0 L69.0175932,0 C31.2816102,0 0.401864407,21.1754132 0.401864407,47.0661074 C0.401864407,72.9501322 31.2816102,94.1255455 69.0175932,94.1255455 L189.135136,94.1255455 L702.966102,94.1255455 C740.708754,94.1255455 771.581831,72.9501322 771.581831,47.0661074 C771.581831,21.1754132 740.708754,0 702.966102,0" id="path38"></path>
                </g>
                <g id="g40" transform="translate(139.316278, 301.002997)" fill="#000000">
                    <path d="M414.177966,0 L80.5499915,0 C36.524678,0 0.51609322,36.0082066 0.51609322,80.0330579 L0.51609322,413.657529 C0.51609322,457.675711 36.524678,493.690587 80.5499915,493.690587 L414.177966,493.690587 C458.19661,493.690587 494.211864,457.675711 494.211864,413.657529 L494.211864,80.0330579 C494.211864,36.0082066 458.19661,0 414.177966,0" id="path42"></path>
                </g>
                <polygon id="path44" fill="#FFC32D" points="633.525475 361.235876 139.829703 361.235876 139.829703 430.36443 633.525475 430.36443"></polygon>
                <g id="g46" transform="translate(556.871494, 164.111468)" stroke="#BCBAB3" stroke-width="4.99999987">
                    <path d="M18.0084746,9.33884298 C18.0084746,4.41680992 14.0134492,0.421826446 9.09136441,0.421826446 C4.16261017,0.421826446 0.174254237,4.41680992 0.174254237,9.33884298 C0.174254237,14.2675455 4.16261017,18.2625289 9.09136441,18.2625289 C14.0134492,18.2625289 18.0084746,14.2675455 18.0084746,9.33884298 L18.0084746,9.33884298 Z" id="path48"></path>
                </g>
                <g id="g50" transform="translate(457.001375, 124.625571)" fill="#E2DED3">
                    <path d="M100.042373,50.3553719 C100.042373,22.9307107 77.8062881,0.694859504 50.3746695,0.694859504 C22.9430508,0.694859504 0.70029661,22.9307107 0.70029661,50.3553719 C0.70029661,77.7867025 22.9430508,100.022554 50.3746695,100.022554 C77.8062881,100.022554 100.042373,77.7867025 100.042373,50.3553719" id="path52"></path>
                </g>
                <g id="g54" transform="translate(457.001375, 124.625571)" stroke="#000000" stroke-width="6.6666665">
                    <path d="M100.042373,50.3553719 C100.042373,22.9307107 77.8062881,0.694859504 50.3746695,0.694859504 C22.9430508,0.694859504 0.70029661,22.9307107 0.70029661,50.3553719 C0.70029661,77.7867025 22.9430508,100.022554 50.3746695,100.022554 C77.8062881,100.022554 100.042373,77.7867025 100.042373,50.3553719 L100.042373,50.3553719 Z" id="path56"></path>
                </g>
                <g id="g58" transform="translate(574.879969, 0.045352)" stroke="#000000" stroke-width="4.99999987" fill="#E2DED3">
                    <path d="M0,173.404959 L0,0.653603306" id="path60"></path>
                </g>
                <g id="g62" transform="translate(468.689964, 177.225457)" fill="#FFFFFF">
                    <path d="M36.0169492,39.0165289 C27.3799576,35.2616446 19.2831949,30.7130992 12.6737288,24.5305455 C9.35232203,21.4626116 6.7045339,17.814438 4.51027119,13.8861488 C2.23597458,9.93785124 1.30224576,5.42932231 0.281813559,0.79407438 C-0.0850084746,5.46933884 0.228457627,10.4447273 2.17594915,14.9532562 C3.97671186,19.475124 6.85126271,23.590157 10.3794237,26.944876 C13.9676102,30.2395702 18.0159915,32.9673636 22.3845085,34.9548512 C26.7330169,36.9356694 31.2949492,38.4763058 36.0169492,39.0165289" id="path64"></path>
                </g>
                <g id="g66" transform="translate(343.991509, 34.882343)" fill="#DB4D37">
                    <path d="M0,28.3471074 C0,28.3471074 47.0065763,-34.9323636 92.2057203,28.3471074 L0,28.3471074 Z" id="path68"></path>
                </g>
                <g id="g70" transform="translate(363.417070, 86.357003)" fill="#EF9E7C">
                    <path d="M26.6779661,106.710744 C26.6779661,106.710744 -1.24719492,28.3250331 0.653610169,21.0220165 C2.56108475,13.7323388 26.6779661,0.713628099 26.6779661,0.713628099 L26.6779661,106.710744 Z" id="path72"></path>
                </g>
                <g id="g74" transform="translate(390.095036, 86.357003)" fill="#EF9E7C">
                    <path d="M0,106.710744 C0,106.710744 27.925161,28.3250331 26.0176864,21.0220165 C24.1168814,13.7323388 0,0.713628099 0,0.713628099 L0,106.710744 Z" id="path76"></path>
                </g>
                <g id="g78" transform="translate(234.762642, 136.330246)" fill="#020202">
                    <path d="M83.7033898,41.6859504 C83.7033898,18.829843 65.1755424,0.302190083 42.3125254,0.302190083 C19.456178,0.302190083 0.928330508,18.829843 0.928330508,41.6859504 C0.928330508,64.5487273 19.456178,83.0763802 42.3125254,83.0763802 C65.1755424,83.0763802 83.7033898,64.5487273 83.7033898,41.6859504" id="path80"></path>
                </g>
                <g id="g82" transform="translate(268.169034, 168.930951)" fill="#FFFFFF">
                    <path d="M36.0169492,18.0082645 C36.0169492,8.25090083 28.1069322,0.347636364 18.3561356,0.347636364 C8.59866949,0.347636364 0.688652542,8.25090083 0.688652542,18.0082645 C0.688652542,27.7656281 8.59866949,35.6688926 18.3561356,35.6688926 C28.1069322,35.6688926 36.0169492,27.7656281 36.0169492,18.0082645" id="path84"></path>
                </g>
            </g>
            <g id="Group" transform="translate(1384.000000, 234.000000)" stroke-width="28">
                <g id="Group-2" transform="translate(1594.500000, 255.500000) scale(1, -1) translate(-1594.500000, -255.500000) ">
                    <path d="M405.287718,54.5758822 C405.287718,57.0422908 402.207187,61.3893358 397.278337,68.7577313 C388.652851,79.2707977 382.491788,97.7380317 377.562939,124.282754 C373.250195,145.832998 371.401877,165.595097 371.401877,184.062331 C371.401877,212.426029 365.856921,227.25531 355.383115,227.25531 C328.890548,227.25531 283.914795,182.243354 220.455855,93.4526469 C210.598156,118.116732 205.669306,157.548439 205.669306,211.840257 C205.669306,238.939921 200.740457,253.12177 191.498863,253.12177 C173.015677,253.12177 125.575499,211.840257 47.9461165,130.417945 C52.25886,151.413248 56.5716034,172.34689 61.5004531,193.958795 C67.045409,219.825254 70.12594,241.437159 70.12594,257.437985 C70.12594,293.200909 62.7326655,311.08237 48.5622227,311.08237 C42.4011606,311.08237 36.8562047,308.615962 31.3112488,304.330577 C23.9179743,298.750328 19.6052308,292.615137 18.3730184,285.185081 C25.1501867,269.153425 28.846824,256.20478 28.846824,245.136772 C28.846824,229.074286 23.3018681,195.777771 13.4441687,146.4496 C4.8186818,105.168087 0.505938328,74.3379807 0.505938328,54.5758822 C0.505938328,26.212184 7.89921285,11.4445629 23.9179743,11.4445629 C32.5434612,11.4445629 39.9367358,22.5125712 44.8655854,44.0936459 C51.0266475,69.9909356 67.6615152,98.3546338 96.0024008,130.417945 C118.182224,156.346065 141.59426,177.896309 165.622403,193.958795 C166.238509,139.050375 173.015677,96.5048274 186.570014,66.2913228 C194.579394,47.2074867 203.204881,37.9276246 213.062581,37.9276246 C222.304174,37.9276246 232.777979,46.5600545 243.867891,64.4415164 C269.744352,106.401292 299.31745,143.36659 331.354973,176.046503 C341.212672,79.2707977 357.231434,31.1450011 378.795151,31.1450011 C396.046125,31.1450011 405.287718,38.5442267 405.287718,54.5758822 L405.287718,54.5758822 Z" id="path116" stroke="#DB4D37"></path>
                    <path d="M666.516751,185.958382 C666.516751,190.274597 664.052326,195.793186 659.123477,201.990038 C659.123477,217.405091 656.659052,231.55611 651.730202,243.918983 C652.962415,248.235198 653.578521,251.318209 653.578521,252.551413 C653.578521,259.334036 649.881883,265.500058 643.720821,271.049477 C636.943653,275.982294 630.166485,279.065305 624.005423,279.065305 C595.664537,279.065305 561.778695,260.567241 521.115686,223.571112 C508.177455,211.20824 498.935862,201.373436 494.007012,195.207414 C468.130552,163.144103 455.808427,133.547201 455.808427,105.183502 C455.808427,87.3020406 461.353383,71.270385 473.059401,57.7051381 C484.765419,41.6426525 498.935862,34.2742569 515.57073,34.2742569 C546.992146,34.2742569 579.645776,54.6221274 613.531617,95.3178683 C615.996042,72.4727592 617.844361,55.8553317 619.076573,45.3422653 C620.924892,25.641827 627.70206,15.1595908 640.024184,15.1595908 C652.962415,15.1595908 659.739583,21.3256121 659.739583,33.0410527 C659.739583,34.2742569 657.275158,43.523289 653.578521,61.9905229 C651.114096,71.8869872 650.49799,82.3692235 650.49799,92.8206297 C650.49799,121.184328 654.810733,148.962254 664.052326,174.859544 C665.284539,179.792361 666.516751,183.491974 666.516751,185.958382 L666.516751,185.958382 Z M623.389316,203.223242 C623.389316,176.092748 611.067192,148.345652 587.655156,118.717919 C564.24312,89.1210169 541.447191,74.9391678 518.035155,74.9391678 C500.784181,74.9391678 492.7748,85.4522342 492.7748,107.002479 C492.7748,127.381179 505.096924,152.014435 530.973385,181.025565 C540.831084,192.741006 553.769315,204.456446 569.788076,216.141057 C587.03905,229.089702 599.97728,235.903155 607.986661,235.903155 C617.844361,235.903155 623.389316,224.804317 623.389316,203.223242 L623.389316,203.223242 Z" id="path120" stroke="#DB4D37"></path>
                    <path d="M927.730381,270.439041 C927.730381,287.7039 912.327726,296.952933 881.522416,296.952933 C876.593566,296.952933 867.351973,296.952933 852.565424,297.569535 L827.305069,297.569535 C832.850025,324.083426 840.859406,356.146737 850.717105,394.37607 C855.645955,415.957145 859.958698,431.372198 863.655336,440.004628 C866.11976,445.554047 867.351973,449.870262 867.351973,452.953273 C867.351973,467.135122 860.574805,474.534347 847.020468,474.534347 C839.627193,474.534347 834.082238,468.984928 831.001706,458.502692 C811.286308,386.976844 797.115865,333.332458 789.106484,296.952933 C763.230023,296.952933 750.291793,290.170309 750.291793,277.221664 C750.291793,262.423213 760.149492,255.640589 779.864891,255.640589 L760.149492,155.751044 C752.140112,115.055303 748.443474,85.4584002 748.443474,66.343734 C748.443474,36.7468315 755.836749,21.3317781 771.85551,21.3317781 C776.168254,21.3317781 780.480997,23.7981867 785.409847,27.4977995 C789.72259,31.1974123 792.187015,35.5136272 792.187015,40.4464443 C792.187015,48.4622721 789.106484,53.9808612 783.561528,58.9445084 C783.561528,87.9248087 787.874272,121.221324 795.267546,158.834054 C795.267546,161.886235 802.660821,194.596978 816.831264,256.873794 C820.527901,256.873794 832.850025,256.257192 853.18153,256.257192 C872.896929,255.640589 885.219053,255.640589 891.380115,255.640589 C895.076752,250.707772 900.005602,248.241364 905.550558,247.00816 L914.176045,247.00816 C922.801532,255.640589 927.730381,263.039815 927.730381,270.439041 L927.730381,270.439041 Z" id="path124" stroke="#DB4D37"></path>
                    <path d="M1175.40508,250.103502 C1174.78897,256.916956 1172.32455,263.668749 1167.3957,269.865601 C1161.23463,276.031622 1155.07357,279.083803 1148.91251,279.083803 C1124.26826,279.083803 1100.24012,269.865601 1076.82808,251.336707 C1052.18384,232.25287 1033.08454,208.791159 1018.29799,181.074893 C1015.83357,193.376106 1012.13693,210.671796 1007.20808,234.071847 C1002.27923,256.269524 993.03764,267.984964 979.483303,267.984964 C976.402772,267.984964 973.938347,265.518556 971.473922,260.616569 C968.393391,255.683752 967.161179,251.336707 967.161179,247.667924 C967.161179,237.80229 968.393391,224.206213 971.473922,207.557955 C972.706135,198.956355 976.402772,190.323925 983.796047,182.89387 C987.492684,165.012408 989.957109,147.130946 989.957109,129.249484 C989.957109,113.248658 988.10879,95.9529685 985.028259,77.4549045 C981.947728,62.0398511 979.483303,51.5884449 978.251091,45.3915934 C978.251091,36.7591635 980.715515,29.9765401 985.644365,22.5773144 C990.573215,15.2089189 996.118171,10.8618739 1002.89534,10.8618739 C1010.90472,10.8618739 1017.68189,31.8571766 1023.22684,73.1695196 C1033.08454,152.063763 1065.12207,203.24174 1118.1072,227.905825 C1125.50047,225.439417 1129.19711,224.206213 1130.42932,224.206213 C1136.59039,224.206213 1144.59977,226.672621 1155.68968,231.605438 C1168.62791,237.154857 1175.40508,243.320879 1175.40508,250.103502 L1175.40508,250.103502 Z" id="path128" stroke="#DB4D37"></path>
                    <path d="M1313.41287,455.416598 C1313.41287,481.313888 1302.93906,494.879135 1282.60756,497.345543 C1266.5888,491.796124 1257.96331,482.547092 1256.7311,468.951015 C1256.7311,464.66563 1257.3472,460.966017 1257.3472,457.266405 C1257.3472,435.68533 1269.05322,422.705855 1293.08136,418.42047 C1306.6357,419.653674 1313.41287,431.985717 1313.41287,455.416598 L1313.41287,455.416598 Z M1280.14313,222.957593 C1280.14313,242.688862 1268.43712,253.7877 1245.64119,255.020904 C1239.48012,251.321292 1236.39959,246.388474 1236.39959,240.839055 C1236.39959,238.958419 1237.0157,234.056432 1238.24791,226.657206 C1220.99694,141.566111 1212.98756,91.6213385 1212.98756,75.589683 C1212.98756,55.8584147 1216.06809,40.4433613 1222.22915,28.1113186 C1230.23853,12.6962652 1238.86402,4.68043746 1248.72172,4.68043746 C1256.11499,4.68043746 1260.42773,8.99665241 1260.42773,17.6290823 C1260.42773,27.4947165 1256.11499,37.3295205 1248.10561,45.9927805 C1248.10561,78.0560915 1254.88278,123.068047 1269.05322,181.028648 C1273.36597,197.060304 1277.0626,210.625551 1280.14313,222.957593 L1280.14313,222.957593 Z" id="path132" stroke="#DB4D37"></path>
                    <path d="M1596.19638,214.89552 C1596.19638,227.227563 1589.41921,233.424415 1577.09708,233.424415 C1574.01655,233.424415 1567.85549,229.077369 1558.6139,221.708974 C1512.40593,180.982403 1487.76168,159.401328 1484.68115,156.349148 C1471.74292,174.23061 1458.80469,192.697844 1446.48257,211.226738 C1424.91885,239.590436 1411.36451,254.358057 1405.81956,254.358057 C1391.03301,254.358057 1384.25584,246.958831 1384.25584,232.19121 C1384.25584,229.077369 1389.8008,219.242565 1400.89071,202.594308 C1411.98062,184.712846 1418.75779,174.23061 1422.45443,171.764201 C1425.53496,168.033758 1429.23159,166.214782 1433.54434,164.981578 C1440.32151,156.349148 1447.09867,145.866911 1453.87584,132.918267 C1384.87195,79.2738808 1350.98611,42.8943548 1350.98611,23.7796886 C1350.98611,10.8310438 1356.53106,4.01759017 1368.85319,4.01759017 C1373.78204,4.01759017 1378.09478,7.13143095 1383.02363,12.064248 C1386.72027,16.966235 1391.03301,21.3132801 1395.96186,26.2460971 C1416.90947,49.6769783 1442.78593,74.3102336 1474.20735,100.207523 C1485.29726,81.0928571 1492.69053,68.7916445 1495.15496,63.8588274 C1509.3254,32.3812884 1517.33478,15.7330307 1518.567,13.2666222 C1522.87974,5.25079444 1528.42469,0.9654096 1535.81797,0.9654096 C1546.29177,0.9654096 1552.45284,7.13143095 1554.30116,18.1994393 C1551.83673,29.9148798 1544.44346,47.7963418 1532.73744,71.843825 C1523.49584,89.1395149 1514.25425,106.990147 1505.62876,124.871609 C1554.30116,165.56735 1582.64204,190.231435 1590.65142,200.127899 C1594.34806,205.060716 1596.19638,209.993533 1596.19638,214.89552 L1596.19638,214.89552 Z" id="path136" stroke="#DB4D37"></path>
                    <path d="M1771.77745,473.248733 C1771.77745,480.647959 1766.8486,489.311219 1757.60701,497.943649 C1747.74931,506.545248 1740.35603,510.892293 1734.19497,510.892293 C1729.26612,510.892293 1726.18559,506.545248 1723.72116,498.529421 C1696.61249,407.888907 1683.67426,323.445244 1683.67426,245.136773 C1683.67426,205.057634 1684.29037,172.346891 1686.75479,147.682806 C1683.05815,141.516784 1681.20984,134.117559 1681.20984,124.868527 C1681.20984,122.402118 1681.20984,115.619495 1681.82594,103.934884 C1681.82594,91.5720115 1682.44205,84.789388 1682.44205,82.3229795 C1682.44205,73.1047776 1686.13869,61.975109 1694.76417,49.0264642 C1703.38966,35.4920473 1712.01515,28.0928217 1720.64063,28.0928217 C1726.8017,28.0928217 1729.88223,31.1450023 1729.88223,37.3110236 C1723.72116,86.6391944 1721.25674,149.532612 1721.25674,225.374675 C1721.25674,256.821384 1723.72116,295.667318 1729.88223,341.326706 C1734.81108,383.872254 1740.97214,418.401973 1747.74931,444.885035 L1752.06205,448.584648 C1765.00028,454.750669 1771.77745,463.413929 1771.77745,473.248733 L1771.77745,473.248733 Z" id="path152" stroke="#FFC32D"></path>
                    <path d="M2049.02524,48.4715223 C2049.02524,53.4043393 2047.17692,57.7513844 2043.48029,62.6533714 C2039.78365,67.0004164 2036.08701,69.466825 2031.15816,69.466825 C2028.07763,69.466825 2021.30046,68.8193927 2010.21055,67.5861884 C1998.50453,65.1197799 1989.87905,64.5340079 1984.33409,64.5340079 C1957.22542,64.5340079 1938.12613,77.4518226 1925.804,103.349112 C1952.91267,115.064553 1975.7086,131.71281 1994.19179,153.293885 C2014.5233,176.724766 2024.9971,200.155647 2024.9971,224.850563 C2024.9971,240.851388 2018.83604,255.033238 2007.74613,267.39611 C1991.72737,283.396936 1976.32471,292.029366 1960.92205,292.029366 C1935.6617,292.029366 1914.71409,275.99771 1898.07922,244.551001 C1883.29267,216.803905 1875.8994,187.854435 1875.8994,158.257532 C1875.8994,149.0085 1876.5155,139.728638 1878.36382,129.893834 C1874.66719,129.246402 1870.35444,129.246402 1866.6578,129.246402 C1856.184,129.246402 1845.71019,132.360243 1835.23639,139.112036 C1824.76258,146.542092 1818.60152,150.241705 1816.7532,150.241705 C1804.43108,150.241705 1798.27002,143.428251 1798.27002,129.893834 C1798.27002,119.99737 1805.66329,110.779168 1821.06595,102.115908 C1833.38807,94.1000803 1850.63904,90.4004674 1872.20276,90.4004674 C1878.36382,90.4004674 1884.52488,91.0170696 1889.45373,92.2502739 C1910.40135,46.6217159 1944.90329,23.8074369 1992.95958,23.8074369 C2029.92595,23.8074369 2049.02524,32.4398667 2049.02524,48.4715223 L2049.02524,48.4715223 Z M1988.64683,221.736722 C1988.64683,205.088465 1981.25356,189.673411 1967.08312,175.491562 C1952.91267,160.076509 1935.6617,148.361068 1915.9463,139.728638 C1914.71409,148.361068 1914.09798,157.024328 1914.09798,164.423554 C1914.09798,184.123992 1918.41073,203.85526 1927.03621,222.384154 C1935.6617,240.851388 1946.13551,250.747853 1958.45763,250.747853 C1965.2348,250.747853 1972.01197,247.634012 1978.78913,242.084593 C1984.9502,235.918571 1988.64683,229.135948 1988.64683,221.736722 L1988.64683,221.736722 Z" id="path156" stroke="#FFC32D"></path>
                    <path d="M2212.28724,92.8576316 C2212.28724,116.288513 2203.04565,128.003953 2184.56246,128.003953 C2174.70476,128.003953 2166.07927,122.454534 2158.06989,112.5889 C2149.44441,102.723266 2145.13166,92.2410294 2145.13166,82.3753953 C2145.13166,76.2093739 2148.8283,67.576944 2156.83768,55.8615035 C2163.61485,45.9958693 2171.00812,41.0630522 2179.63361,41.0630522 C2191.95573,41.0630522 2199.96511,47.8456757 2204.27786,61.4109227 C2209.20671,79.9089867 2212.28724,90.391223 2212.28724,92.8576316 L2212.28724,92.8576316 Z" id="path172" stroke="#DB4D37"></path>
                    <path d="M2471.04877,79.9182358 C2471.04877,84.8510529 2469.20045,89.1672678 2465.50381,94.1000849 C2461.80717,99.032902 2457.49443,101.499311 2453.18169,101.499311 C2448.25284,101.499311 2442.09177,97.2139257 2434.6985,89.1672678 C2424.8408,79.9182358 2418.06363,73.1356123 2414.367,68.8502274 C2403.27708,60.1869674 2389.10664,55.9015826 2371.85567,55.9015826 C2358.30133,55.9015826 2348.44363,60.8035696 2341.05036,71.316636 C2333.65708,81.7988723 2330.57655,95.3332892 2330.57655,111.395775 C2330.57655,157.640935 2351.52416,196.456039 2394.6516,227.286146 C2402.04487,221.767557 2413.13478,219.301148 2427.92133,219.301148 C2441.47567,219.301148 2451.33337,227.286146 2456.87832,244.551006 C2456.26222,263.04907 2445.78841,272.945534 2425.45691,272.945534 C2406.97372,272.945534 2391.57107,268.598489 2378.01673,260.582661 C2353.37248,244.551006 2333.04098,223.000761 2317.63832,195.222835 C2301.61956,166.859137 2294.22628,136.645632 2294.22628,105.198923 C2294.22628,79.3016336 2301.61956,58.337161 2317.63832,41.0723013 C2333.04098,24.4240436 2353.37248,15.7916137 2378.01673,15.7916137 C2400.19655,15.7916137 2422.37638,25.0714759 2444.5562,43.5387098 C2461.80717,57.7205589 2471.04877,70.0834317 2471.04877,79.9182358 L2471.04877,79.9182358 Z" id="path176" stroke="#DB4D37"></path>
                    <path d="M2715.02375,163.153358 C2715.02375,185.967637 2708.24658,207.548712 2695.30835,227.27998 C2681.75401,247.011248 2664.50304,260.576495 2643.55542,268.592323 C2636.16215,271.058732 2631.2333,272.291936 2630.00109,272.291936 C2626.92056,272.291936 2623.84003,271.706164 2621.3756,271.058732 C2616.44675,264.89271 2608.43737,259.343291 2597.34746,253.793872 C2576.39985,242.695033 2559.76498,224.196969 2546.82675,197.683078 C2534.50463,173.018992 2528.34356,147.738305 2528.34356,122.457617 C2528.34356,94.710521 2535.73684,70.6630377 2551.13949,50.3151673 C2567.15825,26.8842861 2588.10587,15.7854477 2613.98233,15.7854477 C2630.00109,15.7854477 2646.01985,23.1846733 2663.27082,36.7499203 C2680.5218,50.3151673 2691.61171,65.1136185 2697.77277,81.7618762 C2701.46941,91.6275103 2703.93383,99.0267359 2705.78215,103.959553 C2711.94321,119.374606 2715.02375,139.105875 2715.02375,163.153358 L2715.02375,163.153358 Z M2679.28958,153.904326 C2679.28958,133.556456 2672.51242,112.591983 2658.95808,91.0109082 C2644.17153,67.580027 2629.38498,55.8954166 2613.36622,55.8954166 C2598.57967,55.8954166 2586.87365,62.0306078 2577.63206,75.5958548 C2568.39047,87.9587276 2564.07772,103.373781 2564.07772,122.457617 C2564.07772,146.5051 2569.00657,168.086175 2579.48038,186.584239 C2591.8025,207.548712 2608.43737,218.64755 2630.00109,219.880754 C2636.16215,216.181142 2644.78764,213.714733 2654.64534,213.714733 C2670.6641,202.615895 2679.28958,182.884626 2679.28958,153.904326 L2679.28958,153.904326 Z" id="path180" stroke="#DB4D37"></path>
                    <path d="M3188.80634,69.9909414 C3188.80634,72.4573499 3185.72581,76.804395 3180.79696,84.1727905 C3172.17147,94.6858569 3166.01041,113.153091 3161.08156,139.697813 C3156.76882,161.248057 3154.9205,181.010156 3154.9205,199.47739 C3154.9205,227.841088 3149.37554,242.670369 3138.90174,242.670369 C3112.40917,242.670369 3067.43342,197.658413 3003.97448,108.867706 C2994.11678,133.531791 2989.18793,172.963498 2989.18793,227.255316 C2989.18793,254.35498 2984.25908,268.536829 2975.01749,268.536829 C2956.5343,268.536829 2909.09412,227.255316 2831.46474,145.833004 C2835.77748,166.828307 2840.09023,187.761949 2845.01907,209.373854 C2850.56403,235.240314 2853.64456,256.852218 2853.64456,272.853044 C2853.64456,308.615968 2846.25129,326.49743 2832.08084,326.49743 C2825.91978,326.49743 2820.37483,324.031021 2814.82987,319.745636 C2807.4366,314.165387 2803.12385,308.030196 2801.89164,300.60014 C2808.66881,284.568484 2812.36545,271.61984 2812.36545,260.551831 C2812.36545,244.489346 2806.82049,211.19283 2796.96279,161.86466 C2788.3373,120.583147 2784.02456,89.7530398 2784.02456,69.9909414 C2784.02456,41.6272432 2791.41783,26.859622 2807.4366,26.859622 C2816.06208,26.859622 2823.45536,37.9276304 2828.38421,59.5087051 C2834.54527,85.4059948 2851.18014,113.769693 2879.52102,145.833004 C2901.70085,171.761124 2925.11288,193.311368 2949.14102,209.373854 C2949.75713,154.465434 2956.5343,111.919887 2970.08864,81.706382 C2978.09802,62.6225459 2986.7235,53.3426837 2996.5812,53.3426837 C3005.8228,53.3426837 3016.2966,61.9751136 3027.38651,79.8565756 C3053.26297,121.816351 3082.83607,158.781649 3114.87359,191.461562 C3124.73129,94.6858569 3140.75006,46.5600603 3162.31377,46.5600603 C3179.56475,46.5600603 3188.80634,53.9592859 3188.80634,69.9909414 L3188.80634,69.9909414 Z" id="path184" stroke="#DB4D37"></path>
                </g>
            </g>
        </g>
    </g>
</svg>