<?xml version="1.0" encoding="UTF-8" standalone="no"?>
<svg width="4808px" height="1024px" viewBox="0 0 4808 1024" version="1.1" xmlns="http://www.w3.org/2000/svg" xmlns:xlink="http://www.w3.org/1999/xlink">
    <!-- Generator: Sketch 40.3 (33839) - http://www.bohemiancoding.com/sketch -->
    <title>1024</title>
    <desc>Created with Sketch.</desc>
    <defs></defs>
    <g id="Page-1" stroke="none" stroke-width="1" fill="none" fill-rule="evenodd">
        <g id="1024">
            <g id="g26" transform="translate(513.500000, 517.000000) scale(1, -1) translate(-513.500000, -517.000000) translate(127.000000, 119.000000)">
                <g id="g32" transform="translate(158.643554, 8.097533)" fill="#FACBAF">
                    <path d="M455.194915,227.429752 C455.194915,101.971264 353.491839,0.269256198 228.032034,0.269256198 C102.578898,0.269256198 0.875822034,101.971264 0.875822034,227.429752 C0.875822034,352.88824 102.578898,454.583579 228.032034,454.583579 C353.491839,454.583579 455.194915,352.88824 455.194915,227.429752" id="path34"></path>
                </g>
                <g id="g36" transform="translate(0.685742, 267.890653)" fill="#000000">
                    <path d="M702.966102,0 L69.0175932,0 C31.2816102,0 0.401864407,21.1754132 0.401864407,47.0661074 C0.401864407,72.9501322 31.2816102,94.1255455 69.0175932,94.1255455 L189.135136,94.1255455 L702.966102,94.1255455 C740.708754,94.1255455 771.581831,72.9501322 771.581831,47.0661074 C771.581831,21.1754132 740.708754,0 702.966102,0" id="path38"></path>
                </g>
                <g id="g40" transform="translate(139.316278, 301.002997)" fill="#000000">
                    <path d="M414.177966,0 L80.5499915,0 C36.524678,0 0.51609322,36.0082066 0.51609322,80.0330579 L0.51609322,413.657529 C0.51609322,457.675711 36.524678,493.690587 80.5499915,493.690587 L414.177966,493.690587 C458.19661,493.690587 494.211864,457.675711 494.211864,413.657529 L494.211864,80.0330579 C494.211864,36.0082066 458.19661,0 414.177966,0" id="path42"></path>
                </g>
                <polygon id="path44" fill="#FFC32D" points="633.525475 361.235876 139.829703 361.235876 139.829703 430.36443 633.525475 430.36443"></polygon>
                <g id="g46" transform="translate(556.871494, 164.111468)" stroke="#BCBAB3" stroke-width="4.99999987">
                    <path d="M18.0084746,9.33884298 C18.0084746,4.41680992 14.0134492,0.421826446 9.09136441,0.421826446 C4.16261017,0.421826446 0.174254237,4.41680992 0.174254237,9.33884298 C0.174254237,14.2675455 4.16261017,18.2625289 9.09136441,18.2625289 C14.0134492,18.2625289 18.0084746,14.2675455 18.0084746,9.33884298 L18.0084746,9.33884298 Z" id="path48"></path>
                </g>
                <g id="g50" transform="translate(457.001375, 124.625571)" fill="#E2DED3">
                    <path d="M100.042373,50.3553719 C100.042373,22.9307107 77.8062881,0.694859504 50.3746695,0.694859504 C22.9430508,0.694859504 0.70029661,22.9307107 0.70029661,50.3553719 C0.70029661,77.7867025 22.9430508,100.022554 50.3746695,100.022554 C77.8062881,100.022554 100.042373,77.7867025 100.042373,50.3553719" id="path52"></path>
                </g>
                <g id="g54" transform="translate(457.001375, 124.625571)" stroke="#000000" stroke-width="6.6666665">
                    <path d="M100.042373,50.3553719 C100.042373,22.9307107 77.8062881,0.694859504 50.3746695,0.694859504 C22.9430508,0.694859504 0.70029661,22.9307107 0.70029661,50.3553719 C0.70029661,77.7867025 22.9430508,100.022554 50.3746695,100.022554 C77.8062881,100.022554 100.042373,77.7867025 100.042373,50.3553719 L100.042373,50.3553719 Z" id="path56"></path>
                </g>
                <g id="g58" transform="translate(574.879969, 0.045352)" stroke="#000000" stroke-width="4.99999987" fill="#E2DED3">
                    <path d="M0,173.404959 L0,0.653603306" id="path60"></path>
                </g>
                <g id="g62" transform="translate(468.689964, 177.225457)" fill="#FFFFFF">
                    <path d="M36.0169492,39.0165289 C27.3799576,35.2616446 19.2831949,30.7130992 12.6737288,24.5305455 C9.35232203,21.4626116 6.7045339,17.814438 4.51027119,13.8861488 C2.23597458,9.93785124 1.30224576,5.42932231 0.281813559,0.79407438 C-0.0850084746,5.46933884 0.228457627,10.4447273 2.17594915,14.9532562 C3.97671186,19.475124 6.85126271,23.590157 10.3794237,26.944876 C13.9676102,30.2395702 18.0159915,32.9673636 22.3845085,34.9548512 C26.7330169,36.9356694 31.2949492,38.4763058 36.0169492,39.0165289" id="path64"></path>
                </g>
                <g id="g66" transform="translate(343.991509, 34.882343)" fill="#DB4D37">
                    <path d="M0,28.3471074 C0,28.3471074 47.0065763,-34.9323636 92.2057203,28.3471074 L0,28.3471074 Z" id="path68"></path>
                </g>
                <g id="g70" transform="translate(363.417070, 86.357003)" fill="#EF9E7C">
                    <path d="M26.6779661,106.710744 C26.6779661,106.710744 -1.24719492,28.3250331 0.653610169,21.0220165 C2.56108475,13.7323388 26.6779661,0.713628099 26.6779661,0.713628099 L26.6779661,106.710744 Z" id="path72"></path>
                </g>
                <g id="g74" transform="translate(390.095036, 86.357003)" fill="#EF9E7C">
                    <path d="M0,106.710744 C0,106.710744 27.925161,28.3250331 26.0176864,21.0220165 C24.1168814,13.7323388 0,0.713628099 0,0.713628099 L0,106.710744 Z" id="path76"></path>
                </g>
                <g id="g78" transform="translate(234.762642, 136.330246)" fill="#020202">
                    <path d="M83.7033898,41.6859504 C83.7033898,18.829843 65.1755424,0.302190083 42.3125254,0.302190083 C19.456178,0.302190083 0.928330508,18.829843 0.928330508,41.6859504 C0.928330508,64.5487273 19.456178,83.0763802 42.3125254,83.0763802 C65.1755424,83.0763802 83.7033898,64.5487273 83.7033898,41.6859504" id="path80"></path>
                </g>
                <g id="g82" transform="translate(268.169034, 168.930951)" fill="#FFFFFF">
                    <path d="M36.0169492,18.0082645 C36.0169492,8.25090083 28.1069322,0.347636364 18.3561356,0.347636364 C8.59866949,0.347636364 0.688652542,8.25090083 0.688652542,18.0082645 C0.688652542,27.7656281 8.59866949,35.6688926 18.3561356,35.6688926 C28.1069322,35.6688926 36.0169492,27.7656281 36.0169492,18.0082645" id="path84"></path>
                </g>
            </g>
            <g id="Group" transform="translate(1230.000000, 121.000000)">
                <g id="Title" transform="translate(1717.500000, 208.000000) scale(1, -1) translate(-1717.500000, -208.000000) " stroke="#DB4D37" stroke-width="22">
                    <path d="M116.107919,363.114817 C120.652537,365.762483 122.924847,369.166626 122.924847,373.705483 C122.924847,380.13553 120.273819,384.325245 115.729201,386.18734 C114.593046,386.18734 112.320737,385.430864 108.912274,383.917911 C88.8402095,377.487864 66.8745544,374.083721 43.3940266,373.705483 L25.9729899,373.705483 C20.6709352,373.705483 17.6411897,375.218435 17.2624715,378.273435 C6.27964399,376.731388 0.598871133,371.436054 0.598871133,362.736579 C0.598871133,353.280626 5.9009258,347.985293 16.5050351,347.228817 C16.5050351,346.850579 16.8837533,346.472341 16.8837533,346.094103 C17.6411897,342.311722 18.3986261,337.394627 18.3986261,331.721055 C18.3986261,321.130389 18.0199079,309.405008 18.0199079,296.544914 L18.0199079,262.503486 C18.0199079,256.829915 18.0199079,250.778105 18.7773443,244.348058 C21.4283716,229.97501 27.1091445,223.166725 36.198381,223.166725 C43.3940266,223.166725 51.7258268,226.19263 60.8150634,232.244439 C75.5850728,244.348058 86.5679003,257.208153 93.763546,270.068248 C100.580473,259.477581 107.776119,248.886915 115.729201,238.296248 C118.00151,233.379153 121.409974,231.109725 125.575874,231.109725 C131.635365,231.487963 135.043829,235.270344 135.043829,242.078629 C135.043829,243.591582 133.907674,246.617486 131.635365,251.534581 C120.273819,276.876533 110.805865,294.275485 102.474064,303.353199 C100.201755,306.379104 96.7932915,307.921151 93.0061096,307.921151 C85.4317458,306.757342 82.0232821,301.462009 82.0232821,292.384295 C82.0232821,292.006056 82.0232821,291.627818 82.4020003,290.871342 C81.6445639,290.114866 80.5084093,288.601914 79.7509729,286.710723 C68.3894272,272.715914 57.0278815,261.74701 44.9088994,254.182248 C43.7727448,255.6952 43.3940266,258.342867 43.3940266,262.503486 L43.3940266,333.234008 C43.3940266,337.772865 43.0153085,342.68996 42.6365903,347.228817 C56.6491633,347.607055 69.5255818,349.149103 80.8871275,351.389436 C96.0358551,354.415341 107.776119,358.197721 116.107919,363.114817 L116.107919,363.114817 Z M256.991086,351.767674 C256.991086,346.094103 255.476213,337.394627 252.446468,325.669246 C249.79544,316.96977 246.765695,308.648532 243.357231,300.705532 C235.404149,282.550104 228.587222,269.690009 222.527731,261.74701 C218.740549,258.342867 216.46824,254.938724 214.953367,251.912819 C213.059776,250.021629 212.30234,248.130439 212.30234,245.86101 C212.30234,240.943915 214.574649,238.296248 219.497985,237.91801 C222.935581,237.91801 226.314913,238.674486 229.723376,240.565677 C245.250822,254.938724 257.748522,272.715914 266.837759,293.519009 C272.139814,304.866151 276.684432,316.96977 279.714177,329.073389 C283.122641,343.824674 285.016232,354.793579 285.016232,362.35834 C284.637514,366.897197 282.743923,371.436054 279.714177,375.218435 C277.441868,377.487864 274.033405,378.622578 269.488786,378.622578 C266.459041,378.622578 258.884677,377.866102 247.523131,376.731388 C233.889276,374.840197 219.497985,372.949007 205.106694,371.436054 C188.064375,369.166626 169.885902,366.518959 150.949993,364.249531 C147.162811,363.493055 142.996911,363.114817 138.831011,362.736579 C135.043829,359.332436 133.150238,355.550055 133.150238,351.011198 L133.150238,347.985293 C134.286392,340.420531 138.452292,336.259913 146.026656,335.503436 C147.920247,335.503436 152.843584,335.881674 161.175384,337.394627 C168.749748,338.529341 175.945393,339.664055 182.383603,341.177008 C183.898475,341.177008 186.170784,341.555246 188.821812,341.933484 C185.792066,333.612246 183.141039,325.291008 180.111293,316.591532 C171.400775,293.140771 161.554102,270.824724 150.949993,249.643391 C149.43512,247.373962 148.677684,245.86101 147.920247,244.348058 C146.405374,242.078629 145.647938,240.187439 145.647938,238.674486 C145.647938,234.135629 148.298965,231.866201 152.843584,231.866201 C157.76692,231.866201 161.93282,234.135629 165.720002,239.052724 C176.70283,252.669296 188.064375,271.5812 199.804639,295.817533 C209.651312,316.591532 215.710803,333.612246 217.225676,346.472341 C218.361831,346.472341 219.876703,346.472341 221.770294,346.850579 C234.646713,348.363531 246.386977,350.254722 256.991086,351.767674 L256.991086,351.767674 Z M77.0999456,209.928392 C75.963791,216.358439 72.1766091,220.14082 66.1171181,221.275534 L63.0873725,221.275534 C60.057627,220.519058 57.4065997,219.413439 55.1342905,217.493154 C52.104545,213.710773 50.9683905,210.30663 50.9683905,207.658963 L50.9683905,115.747109 C50.9683905,83.9751093 54.7555724,60.524348 62.3299362,43.8818722 C59.3001906,41.6124437 57.4065997,38.586539 56.6491633,35.5606343 L56.6491633,29.1305869 C56.6491633,21.5658251 60.4363452,17.4052062 68.3894272,15.8922539 L75.5850728,15.8922539 C83.5381548,16.2704919 91.869955,16.64873 100.580473,17.4052062 C121.409974,20.4311109 141.10332,23.8352537 159.660511,27.6176345 C170.643339,29.887063 181.247448,32.5347296 191.094121,34.8041582 C190.715403,34.4259201 190.715403,33.6694439 190.715403,32.9129677 C190.715403,25.348206 194.502585,20.809349 202.076948,19.2963966 C211.923621,19.2963966 218.740549,25.7264441 222.527731,38.2083009 C228.995072,58.6331576 235.404149,80.1927284 241.46364,103.64349 C249.79544,140.710822 254.340059,168.700441 254.340059,187.612345 C254.340059,205.767773 247.144413,215.980201 232.753122,218.24963 L222.527731,218.24963 C208.136439,217.493154 189.579248,215.980201 166.856157,212.954297 C128.226901,206.524249 98.3081642,200.47244 77.0999456,194.42063 L77.0999456,209.928392 Z M203.970539,66.9543954 C202.455667,66.9543954 200.940794,66.1979193 198.668485,65.4705383 C182.762321,62.0373003 167.613593,59.0113956 153.222302,55.985491 C154.737175,61.6590622 155.873329,69.223824 157.009484,78.301538 C157.76692,87.3792521 158.145638,97.5916804 158.524357,108.182347 C187.306939,116.503585 207.379003,124.068346 219.119267,130.876632 C218.740549,128.607203 218.361831,126.337775 217.983112,124.068346 C213.438494,101.374061 208.893876,83.2186331 205.106694,69.602062 C204.727976,68.8455859 204.349258,67.7108716 203.970539,66.9543954 L203.970539,66.9543954 Z M223.663885,153.192679 L222.935581,153.192679 C207.000285,147.519108 185.413348,141.467298 157.76692,135.037251 C157.76692,137.684917 157.388202,141.08906 157.388202,144.871441 C155.873329,158.488012 154.358456,170.213393 152.464865,180.804059 C187.306939,187.612345 209.651312,191.394726 219.497985,191.394726 C224.80004,191.394726 227.829785,189.503535 227.829785,186.099392 C227.072349,175.886964 225.557476,164.91806 223.663885,153.192679 L223.663885,153.192679 Z M127.469465,175.508726 C127.469465,175.130488 127.469465,174.75225 127.848183,174.374012 C128.605619,167.187488 129.741774,159.622726 131.256647,151.679727 C132.014083,143.736727 132.77152,136.171965 133.528956,128.985442 C116.865356,125.203061 100.201755,121.42068 82.7807184,118.394775 C81.2658457,117.638299 79.3722547,117.260061 77.0999456,116.881823 L77.0999456,164.161583 C93.0061096,167.943964 110.048428,171.726345 127.469465,175.508726 L127.469465,175.508726 Z M130.877929,52.2031101 C112.699455,49.5554435 96.0358551,48.0424912 80.5084093,48.0424912 C79.3722547,54.4725386 78.6148183,60.9025861 78.2361002,67.7108716 C77.4786638,75.2756333 77.0999456,82.0839189 77.0999456,88.1357282 C78.9935365,88.1357282 80.8871275,88.1357282 82.7807184,88.5139663 C85.0530276,88.8922044 88.8402095,89.6486806 94.8997005,91.1616329 C107.018683,94.1875376 120.273819,97.5916804 134.665111,101.374061 C134.665111,93.0528234 134.286392,82.0839189 133.907674,68.4673478 C132.392801,62.4155384 131.635365,57.1202052 130.877929,52.2031101 L130.877929,52.2031101 Z" id="path200"></path>
                    <path d="M448.977903,286.719452 C448.977903,283.693547 449.735339,279.940262 452.007648,276.157881 C454.30909,272.753738 457.309703,270.833452 461.096885,270.455214 C464.155763,270.455214 468.29253,271.240786 473.623717,272.753738 C558.048742,295.448023 609.933134,307.144308 629.62648,307.144308 C620.566375,293.905975 607.311239,276.157881 589.86107,254.220072 C588.346197,251.950643 587.967479,249.681215 587.967479,247.382691 C587.967479,242.843834 590.997224,240.574405 597.464566,240.574405 L602.387902,240.574405 C606.175084,240.574405 610.311852,242.843834 615.643039,247.033548 C626.218016,257.595119 635.685971,268.185786 643.260334,278.805547 C653.864444,293.178595 659.574349,304.496642 659.574349,313.196118 C659.574349,319.655261 656.923321,324.921499 651.592135,329.082117 C646.29008,331.351546 641.017157,332.48626 634.957666,332.48626 L629.62648,332.48626 C620.566375,332.48626 605.796366,330.624165 586.073888,326.812689 C592.890815,335.890403 601.251747,348.37226 611.069288,363.880021 C614.099034,368.797116 615.992625,372.986831 616.779193,376.769212 C617.128779,379.03864 617.507497,381.278973 617.507497,383.170164 C616.779193,388.087259 614.099034,391.520497 609.933134,393.789925 C608.039543,394.517306 606.175084,394.92464 604.252361,394.92464 C600.086461,394.92464 596.677997,393.004354 594.02697,389.600211 C584.559015,364.665593 572.440033,341.942212 558.048742,321.517356 C553.125405,320.033499 547.852483,318.869689 542.521296,318.113213 C512.252973,311.683166 484.198694,304.496642 457.717553,296.960975 C451.658062,293.905975 448.977903,290.530928 448.977903,286.719452 L448.977903,286.719452 Z M442.539694,282.558833 C442.539694,288.261499 439.53908,292.771261 433.479589,296.582737 C430.79943,298.09569 428.148402,298.823071 425.876093,299.230404 L420.952757,299.230404 C417.952143,298.444833 415.650702,297.688356 413.378393,296.175404 C410.37778,293.178595 408.833775,289.745357 408.833775,286.719452 C408.833775,284.857357 408.833775,282.937071 409.591211,281.424119 C411.892652,274.615833 413.028807,266.701929 413.028807,257.216881 C413.028807,247.382691 410.37778,235.65731 405.833161,222.826311 C403.910438,218.258358 403.182134,214.854216 403.182134,213.370358 C404.318288,205.020025 407.69762,200.888502 413.378393,200.888502 C417.952143,200.888502 422.088911,203.128835 425.497375,208.075025 C431.20728,216.367168 435.344048,227.336072 438.402926,241.70912 C439.888666,249.302977 440.675235,256.867738 440.675235,263.646929 C441.403539,269.698738 442.190108,276.157881 442.539694,282.558833 L442.539694,282.558833 Z M489.879467,52.2118387 C512.981277,28.3828393 531.15975,16.2792205 544.793605,16.2792205 C556.184283,16.2792205 563.729514,25.7351727 567.895415,43.8906008 C570.954292,60.5621718 572.818751,84.7694093 572.818751,117.647028 C572.818751,120.672932 572.440033,124.077075 572.090447,127.481218 C588.754047,128.99417 607.311239,131.263599 627.762021,133.911265 C642.53203,135.802456 653.13614,137.315408 659.574349,138.450122 C672.421635,140.719551 680.753435,142.639836 684.540617,144.152789 C689.085235,146.422217 691.736263,149.419027 691.736263,153.608741 C691.007959,157.740265 689.085235,161.900884 686.084622,166.439741 C684.540617,169.49474 681.88959,170.978598 678.481126,171.356836 C673.96564,170.629455 666.769994,169.087407 656.923321,166.090598 C650.86383,164.577645 644.017771,163.035598 636.093821,161.522645 C618.294066,158.525836 594.405688,155.849074 564.516083,153.201408 C563.379928,155.121693 562.243774,157.391122 560.699769,160.038788 C554.640278,168.360026 548.580787,174.760978 541.792992,179.328931 C552.775819,194.429359 558.456592,206.15474 558.456592,214.854216 C558.456592,227.743406 551.989251,239.061453 539.141964,249.681215 C528.508723,257.216881 518.312464,261.406595 509.194095,261.406595 C499.347422,260.650119 494.453218,255.733024 494.0745,246.247977 C494.0745,240.981739 496.317677,237.199358 500.862295,234.929929 C520.555641,225.82312 530.810164,219.04393 530.810164,213.719501 C530.810164,211.071835 527.751286,205.398263 521.691795,196.698787 C517.904613,192.567264 514.904,188.784883 512.981277,185.38074 C510.708968,181.947502 509.980664,178.921597 509.980664,176.681264 C509.980664,172.142407 511.495536,168.709169 514.49615,165.71236 C521.313077,160.795265 527.022982,155.470836 531.538468,149.797265 C494.802804,147.556932 459.96073,143.367217 427.012248,136.588027 C414.893266,134.318599 404.667875,131.641837 396.714793,128.615932 C390.655301,126.346503 386.139815,124.077075 383.867506,121.807646 C380.808629,118.810837 379.293756,115.028456 379.293756,110.111361 C380.42991,101.790123 384.217092,97.2221709 390.655301,96.873028 C395.578638,96.873028 401.259411,98.0077423 407.69762,101.004552 C419.816602,104.786933 431.556866,107.841933 442.190108,109.32579 C467.564226,115.028456 501.241013,119.945551 542.929146,124.077075 C543.278732,120.294694 543.65745,116.890551 543.65745,113.10817 C543.65745,82.8491236 542.142578,61.2895527 539.870268,47.6729816 C527.372568,52.5900768 514.49615,57.9145052 500.862295,63.1807432 C497.453831,65.4792669 494.453218,66.6139812 492.151776,66.6139812 C488.393727,66.6139812 486.471004,64.3154574 486.471004,60.5621718 C486.471004,58.6418861 487.607158,55.9942195 489.879467,52.2118387 L489.879467,52.2118387 Z M445.598571,370.310069 C443.326262,372.201259 440.675235,373.365069 436.858921,373.714212 C430.071125,373.714212 425.497375,371.066545 423.225066,365.800307 C421.710193,364.258259 421.360607,362.396164 421.360607,360.475879 C421.360607,358.613783 421.710193,356.693498 423.225066,354.831403 C436.858921,339.672784 448.599185,327.220022 458.853708,317.385832 C461.096885,313.603451 464.505349,312.061404 468.29253,312.061404 C470.215254,312.061404 472.079712,312.468737 473.973303,313.603451 C476.274745,315.116404 477.760485,317.734975 478.547054,320.76088 L478.547054,324.921499 C477.760485,329.082117 473.973303,335.54126 467.564226,344.240736 C463.777044,350.292546 458.853708,356.344355 453.522521,363.123545 C450.871494,365.800307 448.249599,368.04064 445.598571,370.310069 L445.598571,370.310069 Z M515.632304,386.196068 C513.359995,388.087259 510.33025,389.221973 507.300504,389.600211 C500.512709,389.600211 495.938958,386.952545 492.938345,382.035449 C491.80219,380.144259 491.39434,378.253069 491.39434,376.769212 C491.39434,374.499783 491.80219,372.579497 492.938345,370.717402 C502.785018,356.344355 511.495536,344.589879 518.312464,335.890403 C521.313077,331.758879 524.371955,329.838594 527.751286,329.838594 C529.67401,329.838594 531.538468,330.624165 533.810777,332.137117 C536.461805,333.620974 538.00581,335.890403 538.734114,338.916308 L538.734114,343.455165 C538.00581,347.237546 535.354782,353.289355 530.810164,362.017926 C528.159137,367.313259 525.100259,372.986831 521.691795,379.416878 C519.419486,381.686307 517.555027,383.955735 515.632304,386.196068 L515.632304,386.196068 Z" id="path204"></path>
                    <path d="M1017.42517,182.311193 C1022.3485,185.715335 1025.02866,189.875954 1025.02866,194.414811 C1025.02866,201.194002 1022.3485,205.761954 1017.04645,208.031382 C1015.91029,208.031382 1013.63798,206.896668 1009.8508,205.383716 C989.021303,189.119478 967.055648,177.015859 943.98297,169.451098 C944.332556,184.173288 944.711274,200.088383 945.119125,217.109096 C945.119125,228.456239 944.711274,239.425144 943.98297,250.772286 C943.98297,250.772286 944.332556,250.772286 945.119125,251.150524 C972.357702,260.984714 994.323357,272.331857 1011.36568,284.784619 C1015.15286,287.839618 1017.42517,291.621999 1017.42517,296.160856 C1016.69686,302.590904 1012.12311,306.751523 1003.79131,308.642713 C982.961812,298.052047 961.782725,289.352571 939.787938,282.166047 C935.622038,302.590904 930.698701,318.098665 925.425779,329.445808 C920.88116,336.981474 916.686128,341.171189 913.306797,341.171189 C909.490483,341.171189 906.460737,339.279998 903.430992,335.875855 C900.401246,332.849951 898.915505,329.06757 898.915505,324.528713 C898.915505,322.259284 899.64381,317.342189 901.916119,310.533904 C906.839455,299.943237 910.626637,287.839618 913.656383,274.223047 C887.524828,265.90181 870.103791,261.712095 861.043686,261.712095 C857.227372,261.712095 855.362914,262.497667 855.362914,264.388857 C855.362914,266.62919 855.362914,276.114238 856.091218,293.134952 C856.091218,301.45619 851.575732,306.373285 843.243931,307.857142 L840.592904,307.857142 C834.882999,307.507999 831.095817,304.860332 828.823508,299.943237 C828.066072,293.891428 826.929917,287.46138 826.201613,280.653095 C825.415044,271.197143 825.415044,263.254143 825.415044,257.202334 C825.415044,248.881096 828.066072,242.07281 833.397259,237.504858 C836.805722,234.12981 841.321208,232.616858 846.652395,232.616858 L865.180454,232.616858 C882.601491,234.12981 900.05166,237.155715 917.443565,242.07281 C918.230133,229.590953 918.958437,217.109096 918.958437,204.62724 C918.958437,190.63243 918.579719,176.637621 918.230133,162.264574 C908.38346,159.96605 898.507655,158.482193 888.282264,158.103955 L855.7125,158.103955 C849.653009,158.103955 846.652395,159.96605 846.244545,163.02105 C834.125563,160.751622 828.066072,155.048955 828.066072,145.622098 C828.066072,134.653194 834.882999,129.357861 848.516854,129.357861 L885.660369,129.357861 C896.264478,129.736099 906.460737,130.841718 917.093979,132.762003 C915.549974,104.015909 912.898946,74.8915762 909.490483,46.1454817 C908.38346,46.1454817 907.247306,45.7672436 905.703301,45.7672436 C887.524828,45.0107674 868.2102,43.4978151 847.78855,40.4719104 C825.415044,37.8242438 805.372112,34.420101 787.921944,29.881244 C778.453989,27.6118155 773.938503,22.6947204 773.938503,15.1299586 C774.288089,11.7258159 775.802961,8.69991118 778.861839,5.6740065 C781.862452,2.64810181 784.51348,0.756911383 787.543225,0.756911383 C789.465948,0.756911383 792.84528,1.10605423 797.768616,1.51338755 C821.278276,7.1578636 848.138136,12.0749587 878.086005,15.8864348 C912.898946,20.4252918 944.711274,22.3164823 974.280425,22.3164823 C996.216948,22.3164823 1014.04584,22.3164823 1027.27184,21.5600061 C1041.28441,20.8035299 1051.5098,20.0470538 1058.32673,19.2614823 C1066.30895,20.8035299 1070.44571,25.3132917 1070.44571,32.9071487 C1070.44571,39.7154342 1065.9011,43.8760532 1057.19058,45.3890055 C1038.2838,47.658434 1012.12311,48.385815 978.038475,48.385815 C964.433752,48.385815 950.042461,48.0366721 934.864601,47.2801959 C938.273065,74.1351 940.924092,104.394147 942.817683,138.435575 C946.983583,139.192051 951.178616,140.705003 955.723234,142.596194 C982.612226,153.18686 1003.06301,166.425193 1017.42517,182.311193 L1017.42517,182.311193 Z" id="path208"></path>
                    <path d="M1393.15731,175.884055 C1396.94449,177.018769 1399.2168,180.422912 1399.2168,186.474721 C1399.2168,191.042673 1396.94449,195.552435 1393.15731,199.713054 C1388.61269,202.738959 1383.2815,206.143101 1377.22201,209.547244 C1367.78319,214.464339 1358.66482,220.137911 1349.60472,226.18972 C1346.54584,227.702672 1344.27353,229.215625 1342.00122,229.972101 C1339.35019,231.863291 1336.7283,232.998006 1334.07727,233.376244 C1331.80496,233.376244 1329.50352,232.998006 1328.01778,232.619767 C1324.9589,231.863291 1322.68659,230.350339 1320.82214,228.08091 C1318.52069,224.676768 1317.38454,221.650863 1317.38454,219.381434 C1317.38454,217.112006 1317.76326,215.220816 1319.30726,212.951387 C1320.03557,212.194911 1321.57957,211.060197 1324.58019,208.790768 C1337.07789,199.713054 1350.74087,192.148292 1365.51088,185.718245 C1371.16252,182.69234 1376.49371,180.422912 1381.41705,178.531721 C1385.20423,176.640531 1388.20484,175.884055 1390.12756,175.884055 L1393.15731,175.884055 Z M1440.08923,180.80115 C1440.08923,127.091342 1441.60411,85.106914 1444.28427,53.3349148 C1439.36093,54.8478672 1423.04691,66.5732478 1395.80834,88.5110568 C1391.61331,92.2934377 1387.82612,93.80639 1384.41766,93.80639 C1379.14474,93.80639 1376.8433,91.1587234 1376.8433,85.8633902 C1376.8433,82.4592474 1377.97945,79.0551047 1380.28089,75.6509619 C1390.885,60.5214385 1401.45998,48.7960578 1411.7145,40.4748199 C1424.56179,30.6406297 1436.68077,25.7235346 1448.42103,25.3452965 C1451.47991,25.7235346 1454.85924,26.8582488 1458.64642,28.3712012 C1464.3272,32.5318201 1467.38608,37.0706771 1467.38608,41.6095342 C1466.24992,89.267533 1465.84207,132.764913 1465.84207,173.614626 C1465.84207,202.360721 1466.59951,237.158625 1468.52223,277.6301 C1470.0371,300.702623 1471.17326,317.723337 1471.17326,328.692241 C1471.17326,342.308812 1469.25053,352.899479 1466.24992,360.842479 C1462.05489,371.433145 1457.91812,377.106716 1453.34437,377.106716 C1451.07206,377.106716 1448.07145,376.35024 1443.87642,375.215526 C1427.97025,369.163716 1412.85066,363.868383 1397.6728,359.707764 C1368.16191,351.008288 1345.0601,346.847669 1328.36737,346.847669 C1329.15394,349.873574 1333.69855,363.111907 1342.00122,385.806192 C1344.27353,393.370954 1345.81754,398.666287 1345.81754,402.07043 C1345.81754,407.365763 1343.92395,410.769906 1340.86507,413.039334 C1338.62189,414.552287 1336.34958,415.687001 1334.42686,415.687001 C1328.36737,415.687001 1324.2306,413.795811 1321.17172,410.01343 C1314.38393,383.536764 1306.40171,360.842479 1296.58417,341.552336 C1296.58417,334.744051 1297.72033,329.448717 1300.72094,326.044575 C1303.77982,320.749241 1309.83931,317.723337 1318.52069,316.966861 L1323.44403,316.966861 C1333.2907,316.966861 1345.81754,318.479813 1360.58755,322.262194 C1376.08586,326.044575 1391.26372,330.583432 1406.38331,335.500527 C1427.62067,343.065289 1439.73965,347.225907 1442.01196,347.225907 C1443.87642,347.225907 1445.01257,341.174098 1445.01257,329.448717 C1442.74026,287.842528 1441.60411,253.044624 1440.8758,225.055006 C1440.08923,207.277816 1440.08923,192.52653 1440.08923,180.80115 L1440.08923,180.80115 Z M1249.59398,208.034292 C1247.32167,207.277816 1245.0785,206.899578 1242.39834,206.143101 C1225.00643,200.091292 1203.79821,194.417721 1179.56025,189.122388 L1179.56025,194.039483 C1179.93897,207.656054 1181.07512,227.324434 1183.34743,253.044624 C1183.34743,256.448767 1183.72615,259.85291 1184.07574,263.635291 C1188.27077,265.148243 1192.40754,266.661195 1196.98129,268.930624 C1206.44924,271.956528 1213.23704,273.469481 1217.02422,273.469481 C1235.20269,273.469481 1245.45722,264.391767 1247.72952,246.992815 C1248.45783,234.889196 1248.86568,222.029101 1249.59398,208.034292 L1249.59398,208.034292 Z M1185.61974,291.624909 C1185.61974,296.163766 1185.99846,300.324385 1185.99846,304.106766 C1185.99846,310.536813 1184.86231,315.832146 1182.56086,320.371003 C1190.54308,322.640432 1198.84575,326.044575 1207.5854,329.826956 C1218.16037,334.365813 1226.90002,339.661146 1233.33823,345.712955 C1236.33885,347.225907 1238.26157,349.495336 1239.74731,352.899479 C1239.74731,354.790669 1240.12603,356.68186 1240.12603,358.951288 C1239.39772,362.355431 1235.20269,364.246621 1228.00705,364.246621 C1186.34805,348.73886 1161.7605,341.174098 1153.4287,341.174098 C1145.85433,340.039384 1142.06715,335.878765 1142.06715,328.692241 C1142.06715,318.479813 1145.85433,313.562718 1153.77828,313.562718 C1154.56485,313.562718 1155.701,313.562718 1157.18675,314.319194 C1157.18675,312.806242 1157.18675,311.671527 1157.56546,310.915051 C1157.97331,307.889147 1158.3229,305.619718 1158.70162,303.35029 C1158.70162,289.733718 1158.3229,276.873624 1158.3229,265.526481 C1157.56546,242.07572 1156.83716,220.137911 1156.45844,199.713054 C1155.701,180.044674 1155.701,157.728627 1155.701,133.143151 C1155.701,110.448866 1155.701,92.6716758 1156.45844,79.8115808 C1157.18675,74.8944857 1158.3229,71.1121049 1160.24562,68.8426763 C1162.11008,66.9514859 1164.76111,65.8167717 1167.81999,65.8167717 C1170.8206,65.8167717 1173.87948,67.329724 1176.88009,69.9773906 C1177.66666,71.4903429 1178.4241,73.0032953 1178.80281,74.8944857 C1183.72615,75.2727238 1188.99907,75.6509619 1194.70898,76.4074381 C1206.04139,79.4333427 1215.50935,82.0810093 1223.08371,84.3504379 C1236.7467,78.2986285 1248.86568,74.8944857 1259.44066,74.8944857 C1272.34621,75.6509619 1279.16313,79.4333427 1279.16313,86.6198664 L1277.24041,109.69239 L1272.34621,245.8581 C1270.83133,268.552386 1264.36399,283.681909 1253.00245,291.246671 C1245.45722,295.785528 1235.61054,298.433194 1222.70499,298.433194 C1212.88745,298.054956 1200.38975,295.785528 1185.61974,291.624909 L1185.61974,291.624909 Z M1242.39834,97.967009 C1242.39834,98.7234851 1242.80619,99.4799613 1242.80619,100.236437 C1242.04875,101.74939 1241.67003,103.64058 1240.88347,105.531771 C1239.39772,108.557675 1236.33885,110.448866 1232.55167,110.448866 C1231.06592,110.448866 1229.90064,110.070628 1228.4149,110.070628 C1217.02422,106.288247 1203.79821,102.884104 1188.62035,100.614676 C1185.61974,99.8581994 1182.21128,99.4799613 1179.1524,99.4799613 C1179.1524,110.070628 1178.80281,121.039532 1178.80281,132.386675 C1178.80281,144.490294 1179.1524,155.08096 1179.1524,164.158674 C1199.60318,169.454007 1219.70438,175.127578 1239.39772,181.557626 C1243.18491,182.314102 1246.59337,183.827054 1250.38055,185.340007 C1250.73014,159.619817 1251.13799,131.251961 1251.13799,100.236437 C1248.45783,99.4799613 1245.45722,99.1017232 1242.39834,97.967009 L1242.39834,97.967009 Z" id="path212"></path>
                    <path d="M1841.54799,299.56209 C1841.54799,301.424185 1841.14014,302.966232 1840.79056,304.100947 C1839.27569,307.126851 1836.21681,309.018042 1832.08004,309.018042 C1804.05489,300.696804 1765.42564,290.862614 1715.81356,279.893709 C1716.16314,285.945519 1716.57099,292.375566 1716.57099,299.154756 C1715.81356,333.225279 1712.75468,357.810755 1708.23919,372.911183 C1705.18031,377.100897 1701.77185,379.370326 1697.63508,380.126802 C1694.19749,380.126802 1691.19687,379.748564 1688.54585,379.370326 C1682.0785,377.100897 1679.07789,372.183802 1679.07789,365.375517 C1679.07789,358.538136 1679.8062,353.621041 1680.59276,351.380707 C1684.72953,332.090565 1687.00184,307.475994 1687.00184,278.002519 L1687.00184,273.463662 C1655.97608,266.248043 1623.7559,259.847091 1591.18614,254.551757 C1584.39834,252.660567 1579.06716,250.769377 1574.93039,249.256424 C1567.35602,245.474043 1563.94756,241.691663 1563.94756,237.12371 C1564.67587,226.940377 1568.8709,221.645044 1576.41613,221.645044 C1580.20331,221.645044 1585.12665,222.023282 1591.18614,222.750663 C1594.97332,223.157996 1602.16897,224.292711 1612.42349,226.183901 C1634.73873,230.722758 1658.24839,235.639853 1683.21466,241.313424 C1682.48635,237.12371 1681.3502,232.992187 1680.21405,228.45333 C1674.15455,207.271997 1666.95891,187.981854 1657.84054,169.826426 C1635.14658,122.924904 1605.95615,79.8057618 1570.35664,39.6834295 C1566.59859,35.1736677 1565.08372,31.7695249 1565.08372,29.1218583 C1565.08372,26.8524298 1565.81202,24.9612393 1567.73474,23.0700489 C1569.22048,21.1788585 1571.87151,20.0441442 1575.68782,20.0441442 C1578.71757,20.0441442 1581.33947,21.5280013 1583.99049,24.2047632 C1594.97332,33.2824772 1609.36461,48.7902388 1626.81478,70.3498096 C1649.91659,100.201523 1669.60994,132.759094 1685.5161,167.556998 C1690.78902,180.038855 1696.12021,193.277188 1700.6357,207.271997 C1714.6774,181.930045 1727.93254,159.23576 1740.05152,139.567379 C1758.22999,108.930094 1776.02975,84.3446188 1793.45078,65.8109526 C1809.35695,47.2772864 1824.50568,34.0389534 1838.86783,25.7177155 C1846.85005,21.1788585 1854.04569,18.1529538 1860.45477,17.0182395 C1865.02852,17.0182395 1868.8157,17.3964776 1871.84545,17.3964776 C1876.36094,18.5311919 1879.01196,20.8006204 1879.7694,24.2047632 C1879.7694,27.5798107 1876.76879,30.6348106 1870.7093,33.2824772 C1866.16468,37.0648581 1861.24134,40.8181437 1856.318,44.6005246 C1830.56517,63.8906669 1804.05489,93.4223329 1776.40847,133.51557 C1765.77522,149.40157 1755.57897,166.044045 1745.73229,183.064759 C1735.88562,199.67814 1727.14597,214.836758 1719.22202,228.45333 C1715.43484,233.719567 1712.75468,237.909282 1710.5115,240.906091 C1710.89022,242.826377 1711.2398,245.095805 1712.02637,247.743472 C1712.02637,247.743472 1712.75468,247.743472 1713.89083,248.092615 C1779.40908,263.251233 1819.96106,276.489566 1835.86722,287.458471 C1839.6544,291.61909 1841.54799,295.779709 1841.54799,299.56209 L1841.54799,299.56209 Z" id="path216"></path>
                    <path d="M2243.73797,319.946213 C2245.25285,321.837403 2245.98115,324.48507 2245.98115,327.889213 C2245.25285,335.104832 2241.46566,339.643689 2234.27002,341.156641 C2232.72601,341.156641 2231.61899,340.778403 2230.86155,340.778403 C2227.80268,339.236355 2224.80206,337.37426 2222.50062,335.104832 C2206.62359,318.811499 2186.14368,307.842594 2161.17741,302.547261 C2161.90571,304.816689 2162.69228,307.842594 2163.82843,311.65407 C2165.69289,318.433261 2167.61562,325.619784 2169.10136,332.457165 C2171.4028,340.778403 2172.88854,345.695498 2172.88854,347.20845 L2172.88854,351.339974 C2172.16024,358.526498 2166.82905,362.308879 2157.36109,363.065355 C2151.3016,363.065355 2147.16483,360.446783 2144.86339,355.122355 C2144.10596,350.961736 2142.99893,346.422879 2141.86278,341.156641 C2140.72663,335.832213 2139.18262,329.780403 2137.66775,323.350356 C2135.80329,317.298546 2134.25928,312.032308 2132.74441,306.70788 C2131.25867,303.332832 2130.87995,300.277832 2130.87995,298.008404 C2130.87995,285.526547 2136.53159,278.340023 2148.65058,276.070595 C2150.92288,275.692357 2153.22433,275.692357 2155.49663,275.692357 C2163.04187,275.692357 2171.4028,277.205309 2180.08418,280.260309 L2181.22034,271.939071 C2182.00691,263.588738 2182.38563,255.2675 2182.38563,246.946262 L2182.38563,235.977358 C2180.08418,214.82512 2175.53957,195.127645 2168.75177,176.244836 C2162.69228,183.780502 2156.22494,192.887311 2149.78673,202.721502 C2142.59108,212.904835 2136.18201,220.091358 2130.12252,224.251977 C2127.82107,226.928739 2124.06302,228.412596 2119.48927,228.412596 C2113.42978,226.928739 2110.42917,223.146358 2110.42917,217.82193 C2110.42917,212.555692 2114.21635,203.856216 2122.1403,190.967026 C2130.87995,176.244836 2141.86278,161.49355 2155.49663,147.120503 C2154.36048,144.821979 2153.22433,142.552551 2152.08817,140.66136 C2139.94006,121.749456 2128.19979,104.379599 2116.48866,88.4645044 C2114.94466,86.2241712 2114.21635,83.9547426 2114.21635,81.6853141 C2114.21635,77.1173619 2116.48866,73.7132191 2121.412,72.2002667 L2126.68492,72.2002667 C2131.60826,72.9858381 2135.39544,75.9826476 2138.04647,81.307076 C2149.43714,93.0033615 2160.76956,108.889361 2172.88854,129.314218 C2175.53957,126.317408 2178.59844,123.640646 2182.00691,120.614742 C2195.26204,107.754647 2209.24549,95.27279 2224.42335,83.1691712 C2234.99832,74.1205524 2245.98115,64.6646003 2257.37183,54.83041 C2261.15901,51.4262673 2264.56747,49.5059816 2267.97594,49.5059816 C2272.89927,50.6406959 2275.5503,53.6956958 2275.89989,58.9619337 C2275.89989,63.1516479 2274.76373,67.6614097 2272.49142,72.2002667 C2265.70363,81.307076 2258.10013,90.006552 2249.38961,97.9204566 C2236.54233,109.296694 2228.21053,117.210599 2224.01549,120.99298 C2210.03205,132.369218 2197.50522,143.687265 2186.93024,155.034408 C2186.93024,155.441741 2186.93024,155.790884 2187.30896,156.576455 C2202.45769,187.941121 2210.38164,218.956644 2210.38164,250.001262 C2210.38164,268.15669 2209.24549,282.122404 2207.38103,291.956595 C2208.10933,292.363928 2209.24549,293.091309 2210.76036,293.87688 C2219.87873,298.76488 2227.80268,304.467547 2234.99832,310.519356 C2238.7855,313.894404 2241.84438,316.920308 2243.73797,319.946213 L2243.73797,319.946213 Z M1969.546,237.897644 C1969.546,235.628215 1970.27431,233.707929 1971.81831,231.438501 C1973.33319,229.198168 1975.60549,227.277882 1978.60611,225.386691 C1984.6656,220.87693 1990.72509,218.956644 1997.1633,218.956644 C2002.84407,218.956644 2007.76741,220.091358 2012.34116,222.360787 C2018.02193,225.794025 2021.80911,231.060263 2024.08142,237.897644 C2024.80973,241.680024 2025.5963,248.459215 2025.5963,258.3225 C2025.5963,266.614643 2025.21758,275.692357 2024.80973,285.526547 C2024.46014,290.82188 2024.08142,296.495452 2023.67357,301.790785 C2055.4859,312.381451 2075.93668,321.837403 2084.26848,330.187736 C2086.91951,333.184546 2088.46351,336.239546 2088.46351,338.858117 C2088.46351,340.37107 2088.05566,341.505784 2087.70608,342.291355 C2086.19121,344.560784 2084.26848,346.044641 2081.64659,346.044641 C2072.1495,342.291355 2060.03052,337.723403 2045.63923,333.184546 C2058.16606,348.343165 2064.95385,361.93064 2065.74042,374.412497 L2065.74042,378.602211 C2064.95385,388.785545 2060.43837,394.109973 2051.69872,394.109973 C2046.4258,393.324402 2042.9882,391.054973 2041.50246,386.516116 L2041.50246,380.87164 C2041.50246,376.303688 2040.71589,371.764831 2039.57974,367.225974 C2036.57912,352.882022 2030.86922,339.643689 2022.18783,326.754498 L2022.18783,328.674784 C2019.15809,356.664402 2015.34177,375.168973 2010.41844,384.246688 C2008.14613,391.054973 2003.63064,394.488211 1996.43499,394.488211 C1993.78397,394.488211 1991.10381,392.975259 1988.10319,390.70583 C1986.18047,388.058164 1985.45217,385.381402 1985.45217,382.733735 C1985.80175,378.951354 1986.58832,375.168973 1987.72448,370.630116 C1990.72509,358.14826 1993.37612,344.560784 1995.29884,329.780403 C1995.64843,326.754498 1996.02714,323.350356 1996.78458,319.567975 C1980.52883,314.65088 1963.86523,310.519356 1946.82291,306.70788 C1941.52086,305.602261 1936.59752,304.467547 1932.78121,302.925499 C1926.343,299.550452 1923.34238,296.146309 1923.34238,292.363928 C1924.47854,284.04269 1928.26572,279.474738 1934.32521,279.474738 C1938.11239,279.474738 1942.24916,279.474738 1946.82291,279.852976 C1949.09522,280.260309 1953.23199,280.98769 1958.56318,282.500642 C1971.41046,285.904785 1984.6656,289.687166 1998.7073,294.226023 C1999.08602,287.039499 1999.43561,279.125595 1999.84346,270.426119 L1999.84346,250.728643 C1999.84346,244.676834 1997.92074,242.029167 1994.92012,242.029167 C1993.37612,242.029167 1991.86124,242.407405 1990.3755,243.163882 C1988.10319,243.949453 1986.58832,244.676834 1985.45217,245.811548 C1983.17986,248.080977 1981.25713,249.215691 1979.39268,249.215691 C1976.3338,249.215691 1973.68277,247.731834 1972.19703,245.43331 C1970.27431,242.407405 1969.546,240.167072 1969.546,237.897644 L1969.546,237.897644 Z M2052.48529,298.008404 C2049.83426,297.281023 2047.56195,296.495452 2046.04708,295.011595 C2043.36692,292.363928 2041.85205,289.687166 2041.50246,286.661261 L2041.50246,283.635357 C2041.50246,281.395023 2041.85205,279.474738 2043.36692,277.583547 C2051.34913,269.291405 2058.89436,260.562833 2066.09001,250.728643 C2070.66376,244.676834 2074.07222,240.167072 2076.72325,237.49031 C2080.4813,233.329691 2083.9189,231.438501 2086.54079,231.438501 C2092.979,231.438501 2096.38746,235.220882 2096.38746,242.814739 C2095.65916,246.946262 2093.76557,251.485119 2090.32797,256.402215 C2077.48069,277.583547 2068.01273,290.82188 2061.95324,295.360737 C2060.43837,296.146309 2058.54478,296.87369 2056.62205,297.630166 C2055.10718,297.630166 2053.97103,298.008404 2052.48529,298.008404 L2052.48529,298.008404 Z M1960.42763,260.562833 C1959.69933,267.749357 1957.01917,271.531738 1951.74625,272.288214 L1943.76403,272.288214 C1937.70454,270.804357 1935.05352,267.021976 1935.05352,260.562833 L1935.05352,220.87693 C1935.05352,216.308977 1935.05352,212.904835 1935.46137,210.635406 C1936.97624,205.369168 1939.62727,202.721502 1944.17188,202.721502 C1947.95907,202.721502 1951.36753,204.205359 1954.74686,207.98774 C1955.88302,210.635406 1956.66958,215.552501 1957.42702,222.739025 C1957.42702,224.659311 1957.42702,227.65612 1958.15533,231.438501 C1958.56318,238.246786 1958.94189,244.298596 1959.69933,250.350405 L1960.07805,255.645738 C1960.07805,257.536929 1960.42763,259.049881 1960.42763,260.562833 L1960.42763,260.562833 Z M1978.60611,335.453974 L1978.60611,337.723403 C1977.8778,339.992831 1975.98421,344.909927 1972.92533,351.747307 C1970.68216,357.391783 1968.78857,363.065355 1966.86584,368.360688 C1963.86523,372.899545 1960.07805,375.547212 1956.29087,375.954545 C1954.01856,375.954545 1952.09583,375.547212 1950.58096,374.819831 C1947.1725,373.277783 1944.90019,371.764831 1943.76403,370.251878 C1942.24916,367.633307 1941.11301,364.98564 1941.11301,362.716212 C1941.11301,361.93064 1941.11301,361.174164 1941.52086,360.446783 C1944.17188,352.882022 1949.82353,343.775212 1958.94189,333.184546 C1960.42763,331.322451 1961.94251,329.780403 1963.86523,328.674784 C1965.35097,327.54007 1967.27369,327.132737 1969.92472,327.132737 C1972.19703,327.132737 1974.06149,327.889213 1975.60549,329.780403 C1977.46995,331.322451 1978.60611,333.184546 1978.60611,335.453974 L1978.60611,335.453974 Z M2041.50246,28.353744 L2046.4258,28.353744 C2056.24334,29.4884583 2061.54539,33.619982 2062.68155,40.8065056 C2062.68155,44.5888865 2061.54539,47.6438864 2060.03052,49.1277435 C2050.97041,51.4262673 2042.63861,54.0448386 2035.79255,57.0998385 C2041.12374,64.2572669 2046.04708,72.5785048 2050.56256,82.034457 C2060.43837,103.972266 2065.36171,128.586837 2065.36171,155.790884 C2065.36171,161.842693 2064.60427,167.138026 2063.8177,172.462455 C2062.30283,178.863407 2060.81709,183.431359 2059.30221,186.428169 C2056.24334,189.832311 2052.48529,191.752597 2048.6981,191.752597 C2045.63923,191.752597 2042.63861,190.617883 2039.98759,188.348454 C2038.44358,186.835502 2037.33656,185.293454 2036.2004,183.431359 C2034.6564,182.645788 2033.14153,182.296645 2030.86922,181.511074 C2018.75024,176.972217 2008.14613,173.946312 1999.08602,172.055121 C1999.08602,173.189836 1999.43561,174.731883 1999.43561,176.593978 C1999.43561,188.348454 1997.57115,195.884121 1993.78397,199.666502 C1990.72509,201.93593 1988.10319,203.070644 1985.04432,203.070644 C1981.25713,203.070644 1977.8778,201.93593 1974.46934,200.04474 C1970.68216,196.669692 1969.13815,192.887311 1969.13815,188.348454 C1969.13815,185.293454 1969.546,181.918407 1971.06088,178.106931 C1971.06088,174.731883 1971.41046,171.676883 1971.41046,169.029217 C1971.41046,167.54536 1971.06088,165.625074 1971.06088,163.762979 C1964.62267,161.842693 1958.94189,160.358836 1954.36814,159.224122 C1941.52086,156.169122 1932.78121,152.764979 1928.26572,148.982598 C1924.07069,147.120503 1921.79838,144.472836 1921.79838,141.068694 C1921.44879,138.77017 1921.44879,136.878979 1921.44879,135.366027 C1921.79838,132.369218 1922.93453,129.314218 1924.47854,126.666551 C1927.12957,123.640646 1930.13018,121.749456 1933.18906,121.749456 C1934.70393,121.749456 1937.70454,122.535027 1942.24916,124.04798 C1950.23138,127.044789 1958.56318,130.099789 1967.27369,133.096599 C1966.48713,130.82717 1966.13754,128.586837 1966.13754,126.317408 C1965.35097,122.127694 1965.00138,117.588837 1965.00138,113.079075 C1965.00138,94.1380757 1972.19703,75.9826476 1987.31663,57.8272195 C1990.3755,54.83041 1993.78397,51.7754101 1997.57115,48.7786007 C1993.78397,45.7236007 1989.99679,42.7267913 1986.18047,39.6717914 C1982.39329,37.4023628 1980.52883,34.0273153 1980.52883,29.8376011 C1982.0437,23.7857918 1986.18047,20.7889823 1993.02653,20.7889823 C1996.02714,20.7889823 2000.22218,22.3019347 2004.76679,24.920506 C2008.90356,27.9755059 2013.0986,31.7578868 2017.2645,35.5402677 C2027.08204,30.9723154 2035.06425,28.7028869 2041.50246,28.353744 L2041.50246,28.353744 Z M2039.98759,157.711169 C2040.3663,153.899693 2040.71589,150.117312 2040.71589,145.607551 C2040.71589,133.853075 2038.06486,119.130885 2033.52025,101.324599 C2029.00476,88.8718378 2023.32399,77.9029333 2016.47793,68.068743 C2013.0986,70.3090763 2009.69013,72.5785048 2006.63125,75.2552667 C1995.29884,86.573314 1989.58894,101.324599 1988.86063,120.614742 C1988.86063,125.531837 1989.99679,131.583646 1992.64781,139.148408 L1993.02653,139.933979 C1999.84346,141.796075 2006.28167,143.687265 2012.69074,145.985789 C2024.08142,149.739074 2033.14153,153.521455 2039.98759,157.711169 L2039.98759,157.711169 Z" id="path220"></path>
                    <path d="M2618.67189,346.419969 C2618.67189,354.013826 2610.74794,360.414779 2595.19137,366.466588 C2582.69367,370.627207 2567.16622,372.896635 2548.98775,373.274873 C2526.26466,372.896635 2511.11593,371.03454 2503.54156,367.630397 C2499.75438,364.982731 2497.88992,360.793017 2497.88992,355.119445 C2497.88992,351.337065 2498.61823,347.962017 2500.89054,345.692588 C2503.16285,342.25935 2506.19259,340.775493 2510.00891,340.775493 C2524.74978,341.502874 2538.00492,342.25935 2550.1239,342.25935 C2569.05981,342.25935 2582.69367,339.989922 2591.02547,335.858398 C2591.02547,334.316351 2589.13188,330.155732 2585.34469,322.969208 C2580.80008,315.026208 2576.63418,308.974399 2572.08956,305.192018 C2571.33212,304.464637 2570.19597,304.057304 2569.46766,303.329923 C2555.80468,298.761971 2541.03467,294.223114 2524.74978,290.062495 C2519.06901,288.578638 2512.6308,287.03659 2505.05644,285.523638 C2504.67772,296.114304 2503.54156,307.083208 2501.26926,319.186827 C2499.37566,329.806589 2496.34592,339.233446 2492.55874,347.176446 C2490.66515,350.958826 2488.39284,353.606493 2485.36309,355.875922 C2483.09078,357.010636 2480.81847,358.14535 2478.16745,358.930921 L2474.00155,358.930921 C2466.8059,356.661493 2463.39744,351.744398 2463.39744,344.150541 C2463.39744,341.124636 2464.53359,336.993113 2467.56334,331.668684 C2474.00155,315.782684 2477.41001,297.627256 2477.41001,277.609733 C2477.41001,255.264591 2474.38026,229.922639 2468.32077,201.20564 C2460.74641,170.946593 2452.79333,143.684355 2444.49066,119.477118 C2433.85742,90.3527853 2423.25331,65.7673098 2412.6492,44.9933103 C2410.37689,41.2109294 2409.26987,38.9415009 2409.26987,37.3994533 C2409.26987,30.620263 2412.6492,26.8378822 2419.46613,26.8378822 C2424.01074,26.8378822 2427.04049,28.3217393 2429.3128,30.9694059 C2436.88716,43.0730246 2444.84025,57.82431 2452.79333,75.6015 C2464.15487,99.8087375 2473.62283,124.772451 2481.57591,149.736165 C2483.84822,156.573546 2486.12053,163.352736 2488.01412,170.53926 C2488.39284,170.161021 2489.15027,169.404545 2490.66515,168.677164 L2493.31617,168.677164 C2498.61823,169.404545 2503.94942,170.53926 2508.4649,172.052212 C2523.61363,175.863688 2538.76236,179.995212 2554.2898,184.912307 C2553.91108,183.399354 2553.91108,181.915497 2553.91108,180.780783 C2553.15365,175.456355 2552.77493,170.946593 2552.39621,166.756879 C2550.88134,156.922688 2548.98775,147.088498 2546.71544,136.87607 C2545.958,134.635737 2545.2297,133.093689 2545.2297,131.958975 C2544.44313,131.231594 2544.06441,129.718641 2543.68569,128.176594 C2542.17082,128.176594 2541.03467,127.798356 2539.89851,127.798356 C2532.70287,126.663642 2526.26466,125.528927 2520.9626,124.015975 C2520.9626,124.394213 2520.58388,125.179784 2520.58388,125.907165 C2519.06901,128.93307 2516.7967,131.231594 2513.76696,132.366308 C2512.25208,132.715451 2510.00891,133.093689 2507.32875,133.093689 C2504.67772,133.093689 2502.40541,131.958975 2500.51182,129.718641 C2498.61823,127.449213 2497.48207,124.772451 2497.10336,122.532118 C2499.75438,106.646118 2502.78413,86.5704045 2506.57131,62.363167 C2508.84362,45.7206912 2510.00891,31.7549773 2510.73721,20.0005014 C2511.11593,13.1922158 2514.90311,9.8171683 2521.72004,9.8171683 C2524.37107,9.8171683 2526.64337,10.5445492 2528.53697,12.0865968 L2528.91568,12.0865968 C2530.43056,12.0865968 2532.32415,12.8139777 2534.97517,13.5995492 C2549.36647,16.2181205 2564.89391,20.0005014 2581.55751,24.9175965 C2595.57009,29.1073107 2606.93163,33.2388344 2616.02087,37.8067866 C2617.53574,40.0762152 2618.67189,41.9383104 2619.42933,44.2077389 C2623.21651,47.9901197 2627.00369,52.9072148 2631.54831,58.2316433 C2639.90925,71.062643 2644.42473,84.679214 2645.56089,99.0522613 C2645.56089,111.912356 2639.90925,121.397404 2628.89729,126.663642 C2622.08036,129.718641 2610.74794,131.580737 2595.57009,131.580737 C2586.10213,131.580737 2576.63418,131.231594 2567.54494,130.824261 C2570.9534,139.901975 2573.60443,149.387022 2575.87674,158.842974 C2577.39161,165.243926 2578.52777,171.673974 2579.2852,178.511355 C2579.66392,183.050212 2580.04264,187.559973 2580.04264,192.477068 C2587.617,194.746497 2595.19137,197.015926 2602.76573,199.663592 C2618.67189,204.988021 2630.79088,210.254259 2638.74396,215.549592 C2642.90986,219.739306 2645.18217,224.278163 2645.18217,228.787925 C2644.80345,231.057353 2642.90986,233.70502 2639.5014,235.974448 C2636.85037,237.487401 2633.84975,238.243877 2630.79088,238.243877 C2626.62498,238.243877 2619.42933,235.974448 2609.58266,232.192068 C2598.97855,228.060544 2587.617,223.87083 2575.49802,219.739306 C2571.33212,231.842925 2565.65135,240.164163 2558.4557,245.081258 C2556.94083,246.565115 2555.04724,247.350686 2552.01749,247.699829 C2547.09416,247.699829 2543.30697,245.808639 2540.65595,242.782734 C2538.38364,240.891543 2537.24748,238.243877 2536.86877,235.247067 C2536.86877,232.192068 2537.6262,229.922639 2539.89851,228.409687 C2544.06441,223.87083 2547.47287,218.226354 2550.50262,212.174544 C2534.59646,207.606592 2517.55414,202.718592 2498.99695,198.15064 C2497.48207,197.801497 2496.34592,197.394164 2494.83105,197.394164 C2499.37566,217.091639 2502.40541,236.381782 2503.94942,254.886353 C2503.94942,254.886353 2504.299,254.886353 2504.67772,255.264591 C2522.47747,259.803448 2541.03467,265.855257 2560.72801,274.20559 C2577.77033,280.984781 2591.7829,288.171304 2602.76573,295.765161 C2604.68845,298.761971 2605.79548,301.409637 2606.17419,304.464637 C2606.17419,306.326732 2605.79548,307.839685 2605.41676,308.974399 L2605.03804,309.381732 C2609.96138,316.917399 2613.74856,324.889494 2616.80744,333.58897 C2617.91446,338.098732 2618.67189,342.637589 2618.67189,346.419969 L2618.67189,346.419969 Z M2533.08158,42.7238818 C2531.94543,51.7725006 2530.43056,64.2834527 2528.53697,79.3838808 C2527.40081,86.2212616 2526.64337,92.273071 2525.88594,98.3248804 C2527.40081,98.3248804 2534.97517,99.4595946 2548.98775,101.32169 C2557.69827,102.834642 2566.40878,103.969356 2574.74058,104.37669 C2583.82982,105.104071 2591.40418,105.860547 2597.46368,105.860547 C2609.96138,105.860547 2616.80744,102.834642 2617.53574,96.7828328 C2617.53574,87.7051187 2611.85497,74.1176429 2600.49342,55.1766434 C2599.35727,54.4201672 2598.22111,53.663691 2597.08496,52.1798339 C2595.57009,51.7725006 2594.43393,51.3942625 2593.29778,51.0451196 C2580.04264,48.7756911 2565.65135,46.8554055 2550.1239,44.585977 C2545.2297,44.2077389 2539.51979,43.4512627 2533.08158,42.7238818 L2533.08158,42.7238818 Z M2423.63203,300.274923 C2427.04049,301.816971 2430.07024,304.464637 2432.72126,307.461447 C2434.23614,309.730875 2435.37229,312.378542 2435.37229,314.64797 C2435.37229,316.917399 2433.09998,319.186827 2428.93408,321.485351 C2425.52562,322.969208 2422.49587,324.103922 2419.84484,324.103922 C2417.95125,323.347446 2415.67894,322.212732 2413.40664,320.69978 C2403.55996,316.160923 2394.09201,312.000304 2385.00277,308.974399 C2385.00277,318.837684 2385.76021,329.399256 2387.27508,340.775493 C2387.27508,348.31116 2382.35174,352.093541 2373.26251,352.093541 C2364.93071,352.093541 2360.38609,347.554684 2359.24993,339.233446 C2358.4925,326.402446 2358.11378,313.513256 2358.11378,300.682256 C2349.81111,298.761971 2341.45018,298.005494 2333.87582,298.005494 C2330.46735,298.005494 2327.43761,298.005494 2324.78658,298.412828 C2317.96965,294.630447 2314.18247,290.440733 2312.6676,285.523638 L2312.6676,279.471828 C2312.6676,271.907067 2316.07606,267.746448 2323.65042,267.019067 L2328.95248,267.019067 C2334.25453,267.019067 2339.93531,267.746448 2345.9948,269.288495 C2349.81111,270.015876 2353.56916,271.557924 2358.11378,273.070876 C2358.11378,251.133067 2358.4925,229.195258 2358.87122,206.850116 C2358.87122,189.829402 2359.62865,173.186926 2360.38609,157.300927 C2340.31402,142.549641 2326.7093,130.067784 2319.10581,119.855356 C2313.04632,113.425309 2310.01657,108.886452 2310.01657,106.238785 C2310.01657,100.186976 2313.04632,94.1351662 2319.48452,88.4906901 C2326.7093,81.6533094 2334.25453,73.7103096 2342.20762,64.6325955 C2359.62865,41.9383104 2371.36892,30.620263 2377.42841,29.8346916 C2388.03252,29.8346916 2393.71329,35.15912 2393.71329,44.9933103 C2392.19842,58.5807861 2390.68354,73.3320715 2389.54739,90.0036425 C2388.03252,106.646118 2387.27508,125.528927 2386.89636,146.332022 L2403.21038,159.570355 C2420.60228,172.459545 2430.44895,181.508164 2433.4787,186.425259 C2434.61485,187.967307 2435.37229,189.451164 2435.75101,191.342354 C2435.75101,194.368259 2434.99357,196.666783 2433.4787,198.15064 C2431.96383,199.663592 2430.07024,200.420068 2427.79793,200.420068 C2426.66177,200.420068 2424.76818,199.663592 2422.11715,198.528878 C2409.99817,191.749688 2397.87919,184.563164 2385.76021,176.212831 C2385.76021,186.047021 2385.38149,196.259449 2385.38149,207.257449 C2384.62405,230.329972 2384.62405,255.264591 2384.62405,282.119495 C2385.38149,282.119495 2386.13893,282.526828 2387.27508,283.254209 C2400.90894,288.171304 2413.02792,293.844875 2423.63203,300.274923 L2423.63203,300.274923 Z M2361.52224,125.907165 C2361.52224,119.855356 2361.93009,113.803547 2362.27968,107.751737 C2362.6584,93.4077853 2363.41583,79.7621189 2364.55199,66.5237859 C2353.94788,75.6015 2344.47992,87.7051187 2336.90556,103.241975 C2343.72249,110.428499 2351.67557,117.964166 2361.52224,125.907165 L2361.52224,125.907165 Z" id="path224"></path>
                    <path d="M3212.89239,128.613022 C3212.51367,126.721832 3212.51367,124.830642 3212.51367,123.317689 C3212.89239,119.913546 3214.02854,116.916737 3215.54342,114.618213 C3217.81572,111.592309 3220.46675,109.730213 3223.4965,109.730213 C3226.14752,109.730213 3231.79917,110.457594 3240.1601,112.348785 C3254.17267,114.618213 3268.94268,117.26588 3284.84884,120.32088 C3297.31741,122.182975 3309.43639,124.103261 3321.20579,125.587118 C3320.82707,116.509404 3320.41922,101.758118 3320.06964,81.3332617 C3319.69092,62.4504527 3319.69092,47.6991674 3319.69092,36.3229295 C3319.69092,26.8669774 3323.4781,21.9498823 3331.43118,21.9498823 C3338.24811,21.9498823 3342.41401,26.8669774 3344.3076,35.9446915 C3344.65719,43.5094532 3345.44375,51.8306911 3346.20119,60.1519289 C3346.57991,89.6544996 3346.95863,113.134356 3346.95863,129.747737 C3353.01812,130.504213 3358.69889,131.289784 3364.37966,132.395403 C3396.94943,138.068975 3418.15765,144.120784 3428.76176,150.172593 C3432.54894,152.442022 3434.82125,156.224403 3434.82125,161.897974 C3434.82125,165.331212 3432.92766,167.949783 3429.89791,170.248307 C3427.6256,170.59745 3424.97457,170.975688 3422.29442,170.975688 C3418.53637,170.248307 3411.34072,169.113593 3401.11533,167.193307 C3380.66455,163.410926 3362.83566,160.76326 3346.95863,158.493831 C3346.57991,173.65245 3346.20119,188.403735 3346.20119,202.369449 C3345.79334,207.693878 3345.44375,213.338354 3345.44375,219.011925 C3359.07761,223.579877 3372.71146,229.980829 3387.07362,237.545591 C3392.78353,242.87002 3395.81327,248.921829 3395.81327,255.322781 C3395.05584,260.618114 3391.26866,263.673114 3383.69429,263.673114 C3370.06044,256.835734 3356.77617,250.783924 3343.92888,246.245067 C3343.17145,254.188067 3342.79273,261.752829 3342.41401,269.31759 C3341.65657,274.612924 3340.52042,278.395304 3338.24811,280.664733 C3335.9758,282.963257 3333.32477,284.447114 3330.29503,284.447114 C3327.26528,284.447114 3324.61425,283.690638 3322.34195,282.555923 C3318.17605,280.286495 3316.28245,276.504114 3316.28245,271.994352 C3317.41861,260.618114 3318.55476,249.270972 3319.3122,237.952925 C3301.51244,233.006734 3285.19843,230.359068 3270.07883,230.359068 C3279.92551,256.835734 3287.12115,282.177685 3292.39408,306.763161 C3338.5977,317.004684 3371.19659,327.188018 3390.51122,337.022208 C3394.2984,340.077208 3396.57071,343.48135 3396.57071,347.991112 C3395.81327,349.53316 3395.05584,351.773493 3394.2984,354.042922 C3391.99696,357.825302 3388.61763,359.716493 3384.83045,359.716493 C3383.31557,359.716493 3381.42198,359.36735 3379.52839,359.36735 C3355.64001,350.260541 3328.02272,342.695779 3296.96783,337.022208 C3298.45357,350.667874 3299.61885,363.877112 3299.61885,376.737207 C3298.86142,382.789016 3295.07424,385.844016 3288.25731,386.193159 C3277.6532,386.193159 3271.97243,382.439873 3271.59371,375.602492 C3271.21499,360.851207 3270.45755,346.47816 3269.3214,332.861589 C3257.17328,330.970398 3245.84087,329.835684 3235.23676,329.457446 C3229.17727,328.322732 3226.52624,324.191208 3226.52624,317.353827 C3226.52624,312.81497 3228.41983,309.032589 3231.79917,305.250209 C3234.85804,301.467828 3238.99481,299.983971 3243.91815,299.983971 C3250.38549,300.333113 3257.17328,301.118685 3264.77678,302.253399 C3259.47473,273.478209 3251.11379,246.6524 3240.53882,221.659592 C3240.91753,208.828592 3248.87062,202.369449 3264.77678,201.991211 C3283.33397,202.776783 3301.89116,205.424449 3320.41922,210.690687 C3320.41922,207.286544 3320.82707,203.882402 3320.82707,200.100021 C3320.82707,187.996402 3321.20579,172.866879 3321.20579,154.362308 C3297.31741,150.550831 3278.41064,147.524927 3264.77678,145.633736 C3242.81113,142.607832 3227.28368,139.581927 3218.95188,135.799546 C3215.1647,133.937451 3212.89239,131.638927 3212.89239,128.613022 Z M3137.90619,194.455545 C3145.48055,188.403735 3153.81235,185.348735 3163.65902,185.348735 C3176.91416,185.348735 3188.27571,189.887592 3197.36494,198.965306 C3203.77402,205.424449 3207.96905,214.09483 3210.24136,225.063734 C3211.37752,228.846115 3212.13495,233.384972 3212.13495,238.680305 C3212.13495,252.70421 3201.53084,263.265781 3180.70134,270.859638 C3176.15672,272.343495 3170.85467,273.856447 3165.55261,275.3694 C3192.82032,307.519637 3206.8329,332.105113 3207.59033,349.125826 C3207.59033,355.934112 3203.77402,361.229445 3196.57837,365.768302 C3182.21621,371.820112 3168.96108,375.224254 3156.8421,375.980731 C3148.88901,375.224254 3144.31526,370.685397 3143.17911,362.364159 C3143.17911,353.315541 3146.23799,347.991112 3153.05491,346.856398 C3168.20364,344.616065 3177.29288,342.695779 3180.32262,340.804589 C3180.32262,338.564255 3177.6716,333.996303 3172.74826,326.809779 C3162.14415,311.680256 3153.05491,298.849256 3145.48055,288.229495 C3140.93593,281.421209 3138.66362,277.26059 3138.66362,275.3694 C3138.66362,270.452305 3139.42106,266.669924 3140.93593,263.673114 C3142.4508,259.105162 3145.85927,255.701019 3151.16132,254.188067 C3175.02057,244.353877 3187.13955,236.81821 3187.13955,231.115544 C3186.76083,225.849306 3184.45939,220.932211 3180.32262,217.120735 C3176.15672,212.203639 3170.47595,209.934211 3163.65902,209.934211 C3154.19107,209.934211 3145.48055,212.203639 3137.90619,217.528068 C3137.52747,229.631687 3137.11962,242.87002 3137.11962,256.457495 C3136.77003,269.31759 3136.39131,279.908257 3136.39131,287.880352 C3135.63388,296.928971 3131.06013,301.846066 3122.75746,301.846066 C3119.349,301.846066 3116.31925,300.711352 3113.66822,298.849256 C3109.09447,295.416018 3106.85129,291.633637 3106.85129,287.09478 C3107.23001,268.211971 3107.60873,255.322781 3107.95832,248.921829 C3109.09447,215.607782 3109.88104,186.105212 3110.63848,161.141498 C3112.15335,125.587118 3112.91079,96.1136423 3113.66822,73.3902619 C3113.66822,62.4504527 3114.01781,51.8306911 3115.15396,41.647358 C3115.94053,24.975787 3120.0773,16.6545491 3126.92336,16.6545491 C3133.74029,16.6545491 3137.52747,24.975787 3138.25577,41.647358 C3138.25577,50.3177387 3138.66362,61.6648813 3138.66362,76.0379285 L3138.66362,141.473117 C3138.25577,160.76326 3137.90619,178.569545 3137.90619,194.455545 L3137.90619,194.455545 Z" id="path232"></path>
                    <path d="M3050.78935,60.9113146 C3050.3815,66.2357431 3047.00217,68.8543144 3040.94268,68.8543144 C3038.67037,68.8543144 3034.88319,67.7196002 3029.552,65.8284098 C3011.78138,54.1321243 2993.6029,48.080315 2975.42443,47.6729816 C2957.24596,47.6729816 2943.58297,49.5641721 2933.7363,53.3465529 C2920.48116,57.88541 2911.79977,66.2357431 2907.63387,79.8232189 C2905.36156,86.6605997 2904.575,96.0874566 2904.575,108.598409 L2904.575,113.864647 C2923.54004,117.268789 2943.58297,123.698837 2965.54862,133.154789 C2978.45418,138.857456 2988.27172,145.258408 2995.84608,152.095789 C2998.90496,154.336122 3001.55599,157.012884 3003.82829,160.795265 C3003.82829,163.064693 3004.17788,164.926788 3004.17788,167.196217 L3003.82829,167.981788 C3004.58573,169.116502 3005.72189,170.629455 3006.85804,172.49155 C3014.81112,186.864597 3019.35574,202.023216 3020.49189,217.909215 C3020.49189,232.631406 3015.56856,242.843834 3006.1006,248.517405 C2999.66239,252.707119 2989.78659,254.947453 2976.9393,254.947453 C2957.97426,254.947453 2940.58236,252.299786 2925.05491,247.790024 C2921.26773,246.65531 2917.85927,245.520596 2914.82952,243.978548 C2914.82952,250.437691 2915.20824,256.4895 2915.20824,262.54131 C2915.20824,274.994071 2914.82952,285.613833 2914.42167,294.662452 C2914.07208,296.582737 2913.69336,298.852166 2913.28551,301.499832 C2928.46337,304.496642 2943.58297,308.686356 2958.76083,313.952594 C2976.15273,319.247927 2991.33059,325.299737 3004.58573,332.108022 C3009.10122,333.620974 3012.53881,336.297736 3015.16071,339.672784 C3017.43302,342.727784 3018.5983,345.724593 3018.5983,348.37226 C3018.5983,351.049022 3015.94728,354.045831 3011.37353,357.100831 C3007.23676,358.584688 3003.44958,359.748498 2999.66239,359.748498 C2997.39009,358.584688 2995.11778,357.449974 2992.46675,355.966117 C2971.60812,346.859307 2952.32262,339.672784 2934.52287,335.163022 C2917.85927,330.245927 2902.71054,327.976498 2888.69796,327.976498 C2884.91078,327.976498 2881.88104,327.976498 2879.60873,328.325641 C2872.7918,324.921499 2868.6259,320.789975 2867.48975,316.222023 L2867.48975,309.82107 C2867.48975,302.227213 2870.86908,298.066594 2878.47257,297.310118 L2883.77463,297.310118 L2883.77463,296.93188 C2884.12421,284.828261 2884.53206,272.724643 2884.53206,260.999262 C2884.53206,240.196167 2884.12421,224.310168 2884.12421,212.99212 C2884.12421,203.885311 2882.98806,183.867788 2880.74488,152.095789 C2879.20088,132.398313 2878.47257,117.647028 2878.47257,107.812837 C2878.47257,88.900933 2880.74488,74.1496476 2885.26037,63.5880765 C2893.59217,45.4326484 2907.22602,33.6781725 2926.9485,27.6263631 C2937.52348,23.8730775 2953.08006,21.9527918 2974.28828,21.9527918 C2998.52624,23.4657441 3019.73446,29.9248868 3037.91293,40.8937913 C3046.24473,44.647077 3050.78935,51.4844577 3050.78935,60.9113146 L3050.78935,60.9113146 Z M2907.63387,145.636646 L2907.63387,146.77136 C2909.90618,171.764169 2911.79977,194.458454 2913.28551,214.126835 C2914.82952,214.475977 2921.61731,216.396263 2934.14415,219.771311 C2942.44682,222.040739 2950.42903,223.961025 2957.97426,224.688406 C2965.95648,226.230453 2973.15212,226.957834 2979.21161,226.957834 C2989.78659,226.957834 2995.49649,223.175453 2996.25393,216.396263 C2996.25393,205.776501 2989.437,189.512264 2976.15273,168.330931 C2942.85467,155.470836 2920.13157,147.906074 2907.63387,145.636646 L2907.63387,145.636646 Z M2794.77585,279.15469 C2794.77585,281.045881 2794.368,282.966166 2794.368,284.479119 C2795.91201,285.2065 2797.77647,285.962976 2800.07791,287.09769 C2817.49894,294.662452 2831.51152,303.361928 2842.11563,312.81788 C2845.90281,315.465546 2848.17512,318.869689 2848.17512,323.408546 C2847.41768,329.460356 2842.84393,333.620974 2835.2987,335.163022 C2821.66484,326.056213 2807.27355,318.520546 2792.12483,312.468737 C2771.67404,303.769261 2758.41891,299.579547 2752.35942,299.579547 C2748.95095,299.579547 2747.43608,300.336023 2747.43608,301.848975 C2747.43608,304.903975 2748.95095,315.465546 2751.9807,334.377451 C2751.9807,342.727784 2747.43608,347.615784 2739.10428,349.128736 L2736.45325,349.128736 C2730.39376,348.779593 2726.60658,346.131927 2724.71299,341.563974 C2722.8194,334.755689 2720.92581,327.569165 2719.00308,320.004403 C2717.86693,310.548451 2717.51734,302.227213 2717.51734,295.069785 C2717.51734,287.475928 2719.78965,281.424119 2724.71299,277.292595 C2728.50017,274.237595 2733.04479,273.102881 2737.96812,273.102881 L2750.08711,273.102881 C2755.76788,273.102881 2761.41952,274.237595 2767.12943,275.779643 C2766.34286,260.271881 2764.85712,243.60031 2762.55567,226.230453 C2761.82737,222.448073 2761.41952,218.636596 2761.06993,214.854216 C2755.76788,212.584787 2750.84454,210.693597 2745.51336,208.802406 C2733.80222,205.020025 2719.78965,200.10293 2703.09692,194.836692 C2698.58143,192.538168 2695.90127,189.134026 2695.90127,185.002502 C2695.90127,178.950693 2696.68784,174.38274 2698.96015,171.356836 C2701.23246,167.574455 2703.88349,165.71236 2707.67067,165.71236 C2709.15641,165.71236 2711.07913,166.061502 2713.73016,167.196217 C2726.9853,170.629455 2740.61915,175.168312 2754.63173,180.812788 C2753.08772,173.248026 2751.22326,165.71236 2749.30054,157.740265 C2743.6489,137.315408 2738.31771,119.15998 2733.39437,102.546599 C2726.19873,82.1217427 2719.41093,63.5880765 2713.35144,47.6729816 C2709.94298,39.7299818 2706.8841,31.786982 2703.88349,24.2222203 C2702.36861,22.3601251 2701.61118,19.3051252 2701.61118,15.5227443 C2701.96076,10.2565064 2704.64092,7.20150646 2709.56426,6.44503029 C2712.94359,6.44503029 2716.00247,7.57974455 2718.27478,9.12179213 C2721.68324,13.6315539 2725.84914,21.2254109 2731.12207,32.5434582 C2735.3171,43.1632198 2740.24043,55.6159814 2745.92121,69.2325525 C2754.22387,92.7124091 2761.41952,113.515504 2767.47901,131.263599 C2769.40173,136.588027 2771.26619,142.639836 2772.8102,148.691646 C2788.71636,130.536218 2804.24381,110.460504 2818.60597,89.3082663 C2828.48177,74.9061238 2836.78444,63.5880765 2843.25178,55.9942195 C2847.03896,52.9974101 2850.03958,51.0771244 2852.34102,51.0771244 C2858.02179,51.0771244 2861.0224,54.4812672 2861.0224,61.318648 C2859.53666,70.3672668 2855.37076,80.201457 2848.55384,91.5776948 C2819.39254,136.93717 2797.77647,165.305026 2784.17174,175.895693 C2783.03559,176.303026 2781.89943,176.681264 2780.38456,177.408645 C2781.89943,182.733074 2783.03559,187.999311 2784.52133,194.051121 C2786.79364,194.836692 2789.44467,195.971407 2792.12483,197.455264 C2815.95494,208.802406 2835.2987,220.178644 2850.44743,232.282263 C2853.47717,236.064644 2854.96291,239.468786 2855.37076,242.843834 C2855.37076,245.113262 2854.96291,247.004453 2854.61333,248.517405 C2852.34102,251.572405 2849.68999,253.056262 2845.90281,253.4345 C2843.98009,253.4345 2842.11563,253.056262 2840.1929,252.299786 C2837.19229,251.165072 2829.58879,247.004453 2817.49894,240.196167 C2809.16714,235.686406 2800.07791,231.496691 2790.58082,227.365168 C2793.26098,246.247977 2794.77585,263.676024 2794.77585,279.15469 L2794.77585,279.15469 Z" id="path228"></path>
                </g>
                <g id="Group-2" transform="translate(966.500000, 589.000000) scale(1, -1) translate(-966.500000, -589.000000) translate(0.000000, 434.000000)" stroke-width="20">
                    <path d="M246.192526,33.0439912 C246.192526,34.5373245 244.32586,37.1693244 241.339193,41.6306577 C236.112527,47.9959908 232.379193,59.1773239 229.392527,75.2493235 C226.779194,88.2973232 225.659194,100.262656 225.659194,111.443989 C225.659194,128.617322 222.299194,137.595989 215.952527,137.595989 C199.899194,137.595989 172.645862,110.342656 134.192529,56.5826573 C128.219196,71.5159902 125.232529,95.3906563 125.232529,128.262655 C125.232529,144.670655 122.245863,153.257322 116.645863,153.257322 C105.445863,153.257322 76.6991973,128.262655 29.6591985,78.9639901 C32.2725318,91.6759897 34.885865,104.350656 37.8725316,117.435989 C41.2325315,133.097322 43.0991981,146.182655 43.0991981,155.870655 C43.0991981,177.523988 38.6191983,188.350654 30.0325318,188.350654 C26.2991986,188.350654 22.9391987,186.857321 19.5791987,184.262654 C15.0991988,180.883988 12.4858656,177.169321 11.7391989,172.670654 C15.8458655,162.963988 18.0858654,155.123988 18.0858654,148.422655 C18.0858654,138.697322 14.7258655,118.537322 8.75253234,88.6706565 C3.5258658,63.6759904 0.912532536,45.0093242 0.912532536,33.0439912 C0.912532536,15.8706583 5.39253242,6.92932519 15.0991988,6.92932519 C20.3258654,6.92932519 24.8058653,13.6306584 27.7925319,26.6973247 C31.5258651,42.3773243 41.6058649,59.5506572 58.7791978,78.9639901 C72.2191974,94.6626563 86.4058637,107.710656 100.965863,117.435989 C101.339197,84.1906566 105.445863,58.4306572 113.659196,40.1373244 C118.51253,28.582658 123.739196,22.9639915 129.712529,22.9639915 C135.312529,22.9639915 141.659196,28.190658 148.379196,39.0173244 C164.059195,64.4226571 181.979195,86.8039899 201.392528,106.590656 C207.365861,47.9959908 217.072527,18.8573249 230.139193,18.8573249 C240.592527,18.8573249 246.192526,23.3373248 246.192526,33.0439912 L246.192526,33.0439912 Z" id="path116" stroke="#DB4D37"></path>
                    <path d="M404.485856,112.591989 C404.485856,115.205322 402.992522,118.546656 400.005856,122.298656 C400.005856,131.631989 398.512523,140.199989 395.525856,147.685322 C396.272523,150.298655 396.645856,152.165322 396.645856,152.911988 C396.645856,157.018655 394.405856,160.751988 390.672523,164.111988 C386.565856,167.098655 382.45919,168.965321 378.725856,168.965321 C361.552524,168.965321 341.019191,157.765321 316.379191,135.365322 C308.539192,127.879989 302.939192,121.925322 299.952525,118.191989 C284.272525,98.7786562 276.805859,80.8586567 276.805859,63.6853238 C276.805859,52.8586574 280.165859,43.1519909 287.259192,34.9386578 C294.352525,25.2133247 302.939192,20.7519915 313.019191,20.7519915 C332.059191,20.7519915 351.845857,33.0719912 372.37919,57.7119906 C373.872523,43.8799909 374.992523,33.8186578 375.73919,27.4533247 C376.85919,15.525325 380.965856,9.17865846 388.432523,9.17865846 C396.272523,9.17865846 400.379189,12.9119917 400.379189,20.0053249 C400.379189,20.7519915 398.885856,26.3519914 396.645856,37.5333244 C395.152523,43.5253243 394.779189,49.8719908 394.779189,56.1999906 C394.779189,73.3733235 397.392523,90.1919898 402.992522,105.871989 C403.739189,108.858656 404.485856,111.098656 404.485856,112.591989 L404.485856,112.591989 Z M378.352523,123.045322 C378.352523,106.618656 370.885857,89.8186564 356.69919,71.8799902 C342.512524,53.9599907 328.699191,45.3733242 314.512525,45.3733242 C304.059192,45.3733242 299.205858,51.7386574 299.205858,64.7866571 C299.205858,77.1253234 306.672525,92.0399897 322.352524,109.605323 C328.325858,116.698656 336.165857,123.791989 345.872524,130.866655 C356.325857,138.706655 364.165857,142.831988 369.01919,142.831988 C374.992523,142.831988 378.352523,136.111989 378.352523,123.045322 L378.352523,123.045322 Z" id="path120" stroke="#DB4D37"></path>
                    <path d="M562.769852,163.742388 C562.769852,174.195721 553.436519,179.795721 534.769853,179.795721 C531.783186,179.795721 526.183186,179.795721 517.223186,180.169054 L501.91652,180.169054 C505.27652,196.222387 510.129853,215.63572 516.103186,238.782386 C519.089853,251.849052 521.703186,261.182385 523.943186,266.409052 C525.436519,269.769052 526.183186,272.382385 526.183186,274.249052 C526.183186,282.835718 522.07652,287.315718 513.863186,287.315718 C509.383186,287.315718 506.023187,283.955718 504.15652,277.609052 C492.209854,234.302386 483.623187,201.822387 478.769854,179.795721 C463.089854,179.795721 455.249855,175.689054 455.249855,167.849054 C455.249855,158.889055 461.223188,154.782388 473.169854,154.782388 L461.223188,94.3023897 C456.369854,69.6623903 454.129855,51.7423907 454.129855,40.1690577 C454.129855,22.2490581 458.609854,12.915725 468.316521,12.915725 C470.929854,12.915725 473.543187,14.4090583 476.529854,16.6490583 C479.143187,18.8890582 480.636521,21.5023915 480.636521,24.4890581 C480.636521,29.3423913 478.769854,32.6837245 475.409854,35.6890578 C475.409854,53.235724 478.023187,73.3957235 482.503187,96.1690563 C482.503187,98.0170562 486.983187,117.822389 495.569854,155.529055 C497.809853,155.529055 505.27652,155.155721 517.59652,155.155721 C529.543186,154.782388 537.009852,154.782388 540.743186,154.782388 C542.983186,151.795722 545.969852,150.302388 549.329852,149.555722 L554.556519,149.555722 C559.783185,154.782388 562.769852,159.262388 562.769852,163.742388 L562.769852,163.742388 Z" id="path124" stroke="#DB4D37"></path>
                    <path d="M712.849848,151.429855 C712.476515,155.555188 710.983181,159.643188 707.996515,163.395188 C704.263182,167.128521 700.529848,168.976521 696.796515,168.976521 C681.863182,168.976521 667.303183,163.395188 653.116516,152.176522 C638.183183,140.621855 626.60985,126.416522 617.64985,109.635189 C616.156517,117.083189 613.916517,127.555189 610.929851,141.723188 C607.943184,155.163188 602.343184,162.256521 594.129851,162.256521 C592.263184,162.256521 590.769851,160.763188 589.276518,157.795188 C587.409851,154.808521 586.663185,152.176522 586.663185,149.955188 C586.663185,143.981855 587.409851,135.749855 589.276518,125.669856 C590.023184,120.461856 592.263184,115.235189 596.743184,110.736523 C598.983184,99.9098562 600.476518,89.0831898 600.476518,78.2565234 C600.476518,68.5685236 599.356518,58.0965239 597.489851,46.8965242 C595.623184,37.5631911 594.129851,31.2351912 593.383184,27.4831913 C593.383184,22.2565248 594.876518,18.1498582 597.863184,13.6698583 C600.849851,9.20852513 604.209851,6.57652519 608.316517,6.57652519 C613.169851,6.57652519 617.276517,19.2885249 620.636517,44.3018576 C626.60985,92.0698564 646.023183,123.056522 678.129849,137.989855 C682.609849,136.496522 684.849849,135.749855 685.596515,135.749855 C689.329849,135.749855 694.183182,137.243189 700.903182,140.229855 C708.743182,143.589855 712.849848,147.323188 712.849848,151.429855 L712.849848,151.429855 Z" id="path128" stroke="#DB4D37"></path>
                    <path d="M796.476513,275.740518 C796.476513,291.420518 790.129846,299.633851 777.809846,301.127184 C768.10318,297.767185 762.876513,292.167185 762.129847,283.935185 C762.129847,281.340518 762.50318,279.100518 762.50318,276.860518 C762.50318,263.793852 769.596513,255.935186 784.156513,253.340519 C792.369846,254.087186 796.476513,261.553852 796.476513,275.740518 L796.476513,275.740518 Z M776.316513,134.993855 C776.316513,146.940522 769.22318,153.660522 755.409847,154.407188 C751.676514,152.167188 749.809847,149.180522 749.809847,145.820522 C749.809847,144.681855 750.18318,141.713855 750.929847,137.233855 C740.476514,85.7138565 735.623181,55.4738573 735.623181,45.7671909 C735.623181,33.8205245 737.489847,24.4871914 741.223181,17.0205249 C746.076514,7.68719183 751.30318,2.83385862 757.276514,2.83385862 C761.756514,2.83385862 764.369847,5.44719189 764.369847,10.6738584 C764.369847,16.6471916 761.756514,22.6018581 756.90318,27.8471913 C756.90318,47.2605242 761.009847,74.5138568 769.596513,109.607189 C772.209847,119.313856 774.449847,127.527189 776.316513,134.993855 L776.316513,134.993855 Z" id="path132" stroke="#DB4D37"></path>
                    <path d="M967.830908,130.112522 C967.830908,137.579189 963.724242,141.331188 956.257575,141.331188 C954.390909,141.331188 950.657575,138.699189 945.057576,134.237855 C917.057576,109.579189 902.124243,96.5125229 900.257577,94.664523 C892.417577,105.491189 884.577577,116.672522 877.110911,127.891189 C864.044244,145.064522 855.830911,154.005855 852.470911,154.005855 C843.510911,154.005855 839.404245,149.525855 839.404245,140.584522 C839.404245,138.699189 842.764245,132.744522 849.484245,122.664522 C856.204244,111.837856 860.310911,105.491189 862.550911,103.997856 C864.417578,101.739189 866.657578,100.637856 869.270911,99.8911895 C873.377577,94.664523 877.484244,88.3178565 881.590911,80.4778567 C839.777578,47.9978575 819.244245,25.9711914 819.244245,14.3978583 C819.244245,6.55785853 822.604245,2.4325253 830.070912,2.4325253 C833.057578,2.4325253 835.670912,4.31785858 838.657578,7.30452518 C840.897578,10.2725251 843.510911,12.904525 846.497578,15.8911916 C859.190911,30.0778579 874.870911,44.9925242 893.91091,60.6725238 C900.63091,49.0991908 905.11091,41.651191 906.604243,38.6645244 C915.19091,19.6058582 920.044243,9.52585845 920.79091,8.03252516 C923.404243,3.17919195 926.764243,0.584525344 931.244243,0.584525344 C937.590909,0.584525344 941.324242,4.31785858 942.444242,11.0191917 C940.950909,18.1125249 936.470909,28.9391913 929.377576,43.4991909 C923.777576,53.9711907 918.177576,64.7791904 912.95091,75.6058568 C942.444242,100.245856 959.617575,115.179189 964.470908,121.171189 C966.710908,124.157856 967.830908,127.144522 967.830908,130.112522 L967.830908,130.112522 Z" id="path136" stroke="#DB4D37"></path>
                    <path d="M1074.22533,286.537319 C1074.22533,291.017319 1071.23867,296.262652 1065.63867,301.489319 C1059.66533,306.697318 1055.18533,309.329318 1051.452,309.329318 C1048.46533,309.329318 1046.59867,306.697318 1045.10533,301.843985 C1028.67867,246.963987 1020.83867,195.835988 1020.83867,148.422656 C1020.83867,124.15599 1021.212,104.350657 1022.70533,89.4173238 C1020.46533,85.6839906 1019.34533,81.2039907 1019.34533,75.6039908 C1019.34533,74.1106575 1019.34533,70.003991 1019.71867,62.9293245 C1019.71867,55.4439913 1020.092,51.3373248 1020.092,49.8439915 C1020.092,44.2626583 1022.332,37.5239918 1027.55867,29.683992 C1032.78533,21.4893255 1038.012,17.0093256 1043.23867,17.0093256 C1046.972,17.0093256 1048.83867,18.8573256 1048.83867,22.5906588 C1045.10533,52.4573247 1043.612,90.5373238 1043.612,136.457323 C1043.612,155.497322 1045.10533,179.017322 1048.83867,206.662654 C1051.82533,232.422654 1055.55867,253.32932 1059.66533,269.363986 L1062.27867,271.603986 C1070.11867,275.337319 1074.22533,280.582652 1074.22533,286.537319 L1074.22533,286.537319 Z" id="path152" stroke="#FFC32D"></path>
                    <path d="M1242.22533,29.347992 C1242.22533,32.3346586 1241.10533,34.9666585 1238.86533,37.9346584 C1236.62533,40.5666584 1234.38533,42.0599917 1231.39866,42.0599917 C1229.53199,42.0599917 1225.42533,41.6679917 1218.70533,40.921325 C1211.61199,39.4279917 1206.38533,39.0733251 1203.02533,39.0733251 C1186.59866,39.0733251 1175.02533,46.8946582 1167.55866,62.5746578 C1183.98533,69.667991 1197.79866,79.7479907 1208.99866,92.8146571 C1221.31866,107.001323 1227.66533,121.18799 1227.66533,136.139989 C1227.66533,145.827989 1223.93199,154.414656 1217.21199,161.899989 C1207.50533,171.587988 1198.172,176.814655 1188.83866,176.814655 C1173.532,176.814655 1160.83866,167.107989 1150.75866,148.067989 C1141.79866,131.267989 1137.31866,113.73999 1137.31866,95.8199903 C1137.31866,90.2199905 1137.692,84.6013239 1138.812,78.6466574 C1136.572,78.2546574 1133.95866,78.2546574 1131.71866,78.2546574 C1125.372,78.2546574 1119.02533,80.1399907 1112.67866,84.2279906 C1106.332,88.7266572 1102.59866,90.9666571 1101.47866,90.9666571 C1094.012,90.9666571 1090.27866,86.8413239 1090.27866,78.6466574 C1090.27866,72.6546576 1094.75866,67.0733244 1104.092,61.8279912 C1111.55866,56.974658 1122.012,54.734658 1135.07866,54.734658 C1138.812,54.734658 1142.54533,55.1079913 1145.532,55.854658 C1158.22533,28.227992 1179.132,14.414659 1208.25199,14.414659 C1230.65199,14.414659 1242.22533,19.6413256 1242.22533,29.347992 L1242.22533,29.347992 Z M1205.63866,134.254656 C1205.63866,124.174656 1201.15866,114.841323 1192.572,106.254657 C1183.98533,96.9213236 1173.532,89.8279905 1161.58533,84.6013239 C1160.83866,89.8279905 1160.46533,95.0733237 1160.46533,99.5533236 C1160.46533,111.481323 1163.07866,123.42799 1168.30533,134.646656 C1173.532,145.827989 1179.87866,151.819989 1187.34533,151.819989 C1191.452,151.819989 1195.55866,149.934656 1199.66533,146.574656 C1203.39866,142.841322 1205.63866,138.734656 1205.63866,134.254656 L1205.63866,134.254656 Z" id="path156" stroke="#FFC32D"></path>
                    <path d="M1341.15493,56.2223941 C1341.15493,70.4090604 1335.55493,77.5023936 1324.35493,77.5023936 C1318.3816,77.5023936 1313.15493,74.1423937 1308.3016,68.1690605 C1303.07493,62.1957273 1300.4616,55.8490608 1300.4616,49.8757276 C1300.4616,46.1423944 1302.7016,40.9157278 1307.55493,33.8223947 C1311.6616,27.8490615 1316.1416,24.8623949 1321.36827,24.8623949 C1328.83493,24.8623949 1333.68827,28.9690615 1336.3016,37.1823946 C1339.28827,48.3823943 1341.15493,54.7290608 1341.15493,56.2223941 L1341.15493,56.2223941 Z" id="path172" stroke="#DB4D37"></path>
                    <path d="M1497.95306,48.3879943 C1497.95306,51.3746609 1496.83306,53.9879942 1494.59306,56.9746608 C1492.35306,59.9613274 1489.73973,61.4546607 1487.12639,61.4546607 C1484.13973,61.4546607 1480.4064,58.8599941 1475.9264,53.9879942 C1469.95306,48.3879943 1465.8464,44.2813278 1463.6064,41.6866611 C1456.8864,36.4413279 1448.29973,33.8466613 1437.8464,33.8466613 C1429.63306,33.8466613 1423.65973,36.8146613 1419.17973,43.1799944 C1414.69973,49.526661 1412.83306,57.7213274 1412.83306,67.4466605 C1412.83306,95.4466598 1425.5264,118.947993 1451.65973,137.614659 C1456.13973,134.273326 1462.85973,132.779992 1471.81973,132.779992 C1480.03306,132.779992 1486.00639,137.614659 1489.36639,148.067992 C1488.99306,159.267992 1482.6464,165.259991 1470.3264,165.259991 C1459.1264,165.259991 1449.79306,162.627991 1441.57973,157.774658 C1426.6464,148.067992 1414.3264,135.019992 1404.99306,118.201326 C1395.2864,101.027993 1390.8064,82.7346601 1390.8064,63.6946606 C1390.8064,48.014661 1395.2864,35.321328 1404.99306,24.8679949 C1414.3264,14.7879952 1426.6464,9.56132862 1441.57973,9.56132862 C1455.01973,9.56132862 1468.45973,15.1799951 1481.89973,26.3613282 C1492.35306,34.9479947 1497.95306,42.4333278 1497.95306,48.3879943 L1497.95306,48.3879943 Z" id="path176" stroke="#DB4D37"></path>
                    <path d="M1645.79119,98.7842597 C1645.79119,112.597593 1641.68452,125.664259 1633.84452,137.610925 C1625.63119,149.557592 1615.17786,157.770925 1602.48453,162.624258 C1598.00453,164.117591 1595.01786,164.864258 1594.27119,164.864258 C1592.40453,164.864258 1590.53786,164.509591 1589.04453,164.117591 C1586.05786,160.384258 1581.20453,157.024258 1574.48453,153.664258 C1561.79119,146.944259 1551.71119,135.744259 1543.87119,119.690926 C1536.40453,104.757593 1532.67119,89.4509266 1532.67119,74.1442603 C1532.67119,57.3442608 1537.15119,42.7842611 1546.48453,30.4642614 C1556.19119,16.2775951 1568.88453,9.55759529 1584.56453,9.55759529 C1594.27119,9.55759529 1603.97786,14.0375952 1614.43119,22.2509283 C1624.88452,30.4642614 1631.60452,39.4242612 1635.33786,49.504261 C1637.57786,55.4775941 1639.07119,59.957594 1640.19119,62.9442606 C1643.92452,72.2775937 1645.79119,84.2242601 1645.79119,98.7842597 L1645.79119,98.7842597 Z M1624.13786,93.1842599 C1624.13786,80.8642602 1620.03119,68.1709272 1611.81786,55.1042608 C1602.85786,40.9175945 1593.89786,33.842928 1584.19119,33.842928 C1575.23119,33.842928 1568.13786,37.5575946 1562.53786,45.7709277 C1556.93786,53.2562609 1554.32453,62.589594 1554.32453,74.1442603 C1554.32453,88.70426 1557.31119,101.770926 1563.65786,112.970926 C1571.12453,125.664259 1581.20453,132.384259 1594.27119,133.130926 C1598.00453,130.890926 1603.23119,129.397592 1609.20453,129.397592 C1618.91119,122.677592 1624.13786,110.730926 1624.13786,93.1842599 L1624.13786,93.1842599 Z" id="path180" stroke="#DB4D37"></path>
                    <path d="M1932.88265,42.3773278 C1932.88265,43.8706611 1931.01598,46.502661 1928.02932,50.9639943 C1922.80265,57.3293274 1919.06932,68.5106605 1916.08265,84.5826601 C1913.46932,97.6306598 1912.34932,109.595993 1912.34932,120.777326 C1912.34932,137.950659 1908.98932,146.929325 1902.64265,146.929325 C1886.58932,146.929325 1859.33599,119.675993 1820.88265,65.9159939 C1814.90932,80.8493268 1811.92265,104.723993 1811.92265,137.595992 C1811.92265,154.003992 1808.93599,162.590658 1803.33599,162.590658 C1792.13599,162.590658 1763.38932,137.595992 1716.34932,88.2973267 C1718.96266,101.009326 1721.57599,113.683993 1724.56266,126.769326 C1727.92266,142.430659 1729.78932,155.515992 1729.78932,165.203991 C1729.78932,186.857324 1725.30932,197.683991 1716.72266,197.683991 C1712.98932,197.683991 1709.62932,196.190657 1706.26932,193.595991 C1701.78932,190.217324 1699.17599,186.502658 1698.42932,182.003991 C1702.53599,172.297325 1704.77599,164.457325 1704.77599,157.755992 C1704.77599,148.030658 1701.41599,127.870659 1695.44266,98.0039931 C1690.21599,73.009327 1687.60266,54.3426608 1687.60266,42.3773278 C1687.60266,25.2039949 1692.08266,16.2626618 1701.78932,16.2626618 C1707.01599,16.2626618 1711.49599,22.963995 1714.48266,36.0306613 C1718.21599,51.7106609 1728.29599,68.8839938 1745.46932,88.2973267 C1758.90932,103.995993 1773.09599,117.043993 1787.65599,126.769326 C1788.02932,93.5239932 1792.13599,67.7639938 1800.34932,49.470661 C1805.20265,37.9159946 1810.42932,32.2973281 1816.40265,32.2973281 C1822.00265,32.2973281 1828.34932,37.5239946 1835.06932,48.350661 C1850.74932,73.7559937 1868.66932,96.1373265 1888.08265,115.923993 C1894.05598,57.3293274 1903.76265,28.1906615 1916.82932,28.1906615 C1927.28265,28.1906615 1932.88265,32.6706614 1932.88265,42.3773278 L1932.88265,42.3773278 Z" id="path184" stroke="#DB4D37"></path>
                </g>
            </g>
        </g>
    </g>
</svg>