<?xml version="1.0" encoding="UTF-8" standalone="no"?>
<svg width="1024px" height="1024px" viewBox="0 0 1024 1024" version="1.1" xmlns="http://www.w3.org/2000/svg" xmlns:xlink="http://www.w3.org/1999/xlink">
    <!-- Generator: Sketch 40.3 (33839) - http://www.bohemiancoding.com/sketch -->
    <title>1024</title>
    <desc>Created with Sketch.</desc>
    <defs></defs>
    <g id="Page-1" stroke="none" stroke-width="1" fill="none" fill-rule="evenodd">
        <g id="1024">
            <g id="g26" transform="translate(511.500000, 511.500000) scale(1, -1) translate(-511.500000, -511.500000) translate(118.000000, 108.000000)">
                <g id="g32" transform="translate(162.643554, 2.097533)" fill="#FACBAF">
                    <path d="M460.194915,233.429752 C460.194915,107.971264 358.491839,6.2692562 233.032034,6.2692562 C107.578898,6.2692562 5.87582203,107.971264 5.87582203,233.429752 C5.87582203,358.88824 107.578898,460.583579 233.032034,460.583579 C358.491839,460.583579 460.194915,358.88824 460.194915,233.429752" id="path34"></path>
                </g>
                <g id="g36" transform="translate(5.685742, 267.890653)" fill="#000000">
                    <path d="M706.966102,0 L73.0175932,0 C35.2816102,0 4.40186441,21.1754132 4.40186441,47.0661074 C4.40186441,72.9501322 35.2816102,94.1255455 73.0175932,94.1255455 L193.135136,94.1255455 L706.966102,94.1255455 C744.708754,94.1255455 775.581831,72.9501322 775.581831,47.0661074 C775.581831,21.1754132 744.708754,0 706.966102,0" id="path38"></path>
                </g>
                <g id="g40" transform="translate(142.316278, 301.002997)" fill="#000000">
                    <path d="M420.177966,0 L86.5499915,0 C42.524678,0 6.51609322,36.0082066 6.51609322,80.0330579 L6.51609322,413.657529 C6.51609322,457.675711 42.524678,493.690587 86.5499915,493.690587 L420.177966,493.690587 C464.19661,493.690587 500.211864,457.675711 500.211864,413.657529 L500.211864,80.0330579 C500.211864,36.0082066 464.19661,0 420.177966,0" id="path42"></path>
                </g>
                <polygon id="path44" fill="#FFC32D" points="642.525475 361.235876 148.829703 361.235876 148.829703 430.36443 642.525475 430.36443"></polygon>
                <g id="g46" transform="translate(563.871494, 160.111468)" stroke="#BCBAB3" stroke-width="4.99999987">
                    <path d="M20.0084746,13.338843 C20.0084746,8.41680992 16.0134492,4.42182645 11.0913644,4.42182645 C6.16261017,4.42182645 2.17425424,8.41680992 2.17425424,13.338843 C2.17425424,18.2675455 6.16261017,22.2625289 11.0913644,22.2625289 C16.0134492,22.2625289 20.0084746,18.2675455 20.0084746,13.338843 L20.0084746,13.338843 Z" id="path48"></path>
                </g>
                <g id="g50" transform="translate(466.001375, 121.625571)" fill="#E2DED3">
                    <path d="M100.042373,53.3553719 C100.042373,25.9307107 77.8062881,3.6948595 50.3746695,3.6948595 C22.9430508,3.6948595 0.70029661,25.9307107 0.70029661,53.3553719 C0.70029661,80.7867025 22.9430508,103.022554 50.3746695,103.022554 C77.8062881,103.022554 100.042373,80.7867025 100.042373,53.3553719" id="path52"></path>
                </g>
                <g id="g54" transform="translate(466.001375, 121.625571)" stroke="#000000" stroke-width="6.6666665">
                    <path d="M100.042373,53.3553719 C100.042373,25.9307107 77.8062881,3.6948595 50.3746695,3.6948595 C22.9430508,3.6948595 0.70029661,25.9307107 0.70029661,53.3553719 C0.70029661,80.7867025 22.9430508,103.022554 50.3746695,103.022554 C77.8062881,103.022554 100.042373,80.7867025 100.042373,53.3553719 L100.042373,53.3553719 Z" id="path56"></path>
                </g>
                <g id="g58" transform="translate(583.879969, 0.045352)" stroke="#000000" stroke-width="4.99999987" fill="#E2DED3">
                    <path d="M0,173.404959 L0,0.653603306" id="path60"></path>
                </g>
                <g id="g62" transform="translate(473.689964, 176.225457)" fill="#FFFFFF">
                    <path d="M40.0169492,40.0165289 C31.3799576,36.2616446 23.2831949,31.7130992 16.6737288,25.5305455 C13.352322,22.4626116 10.7045339,18.814438 8.51027119,14.8861488 C6.23597458,10.9378512 5.30224576,6.42932231 4.28181356,1.79407438 C3.91499153,6.46933884 4.22845763,11.4447273 6.17594915,15.9532562 C7.97671186,20.475124 10.8512627,24.590157 14.3794237,27.944876 C17.9676102,31.2395702 22.0159915,33.9673636 26.3845085,35.9548512 C30.7330169,37.9356694 35.2949492,39.4763058 40.0169492,40.0165289" id="path64"></path>
                </g>
                <g id="g66" transform="translate(352.991509, 29.882343)" fill="#DB4D37">
                    <path d="M0,33.3471074 C0,33.3471074 47.0065763,-29.9323636 92.2057203,33.3471074 L0,33.3471074 Z" id="path68"></path>
                </g>
                <g id="g70" transform="translate(372.417070, 86.357003)" fill="#EF9E7C">
                    <path d="M26.6779661,106.710744 C26.6779661,106.710744 -1.24719492,28.3250331 0.653610169,21.0220165 C2.56108475,13.7323388 26.6779661,0.713628099 26.6779661,0.713628099 L26.6779661,106.710744 Z" id="path72"></path>
                </g>
                <g id="g74" transform="translate(399.095036, 86.357003)" fill="#EF9E7C">
                    <path d="M0,106.710744 C0,106.710744 27.925161,28.3250331 26.0176864,21.0220165 C24.1168814,13.7323388 0,0.713628099 0,0.713628099 L0,106.710744 Z" id="path76"></path>
                </g>
                <g id="g78" transform="translate(240.762642, 131.330246)" fill="#020202">
                    <path d="M86.7033898,46.6859504 C86.7033898,23.829843 68.1755424,5.30219008 45.3125254,5.30219008 C22.456178,5.30219008 3.92833051,23.829843 3.92833051,46.6859504 C3.92833051,69.5487273 22.456178,88.0763802 45.3125254,88.0763802 C68.1755424,88.0763802 86.7033898,69.5487273 86.7033898,46.6859504" id="path80"></path>
                </g>
                <g id="g82" transform="translate(273.169034, 166.930951)" fill="#FFFFFF">
                    <path d="M40.0169492,20.0082645 C40.0169492,10.2509008 32.1069322,2.34763636 22.3561356,2.34763636 C12.5986695,2.34763636 4.68865254,10.2509008 4.68865254,20.0082645 C4.68865254,29.7656281 12.5986695,37.6688926 22.3561356,37.6688926 C32.1069322,37.6688926 40.0169492,29.7656281 40.0169492,20.0082645" id="path84"></path>
                </g>
            </g>
        </g>
    </g>
</svg>